<?xml version="1.0" encoding="utf-8"?>
<!-- Generator: Adobe Illustrator 24.2.1, SVG Export Plug-In . SVG Version: 6.00 Build 0)  -->
<svg version="1.1" id="Calque_1" xmlns="http://www.w3.org/2000/svg" xmlns:xlink="http://www.w3.org/1999/xlink" x="0px" y="0px"
	 viewBox="0 0 184.43 193.63" style="enable-background:new 0 0 184.43 193.63;" xml:space="preserve">
<style type="text/css">
	.st0{fill:#53B85C;}
	.st1{fill:#1B9B29;}
	.st2{fill:#38B045;}
	.st3{fill:#1B9E2A;}
	.st4{fill:#37B044;}
	.st5{fill:#3DB449;}
	.st6{fill:#3CB449;}
	.st7{fill:#26AE36;}
	.st8{fill:#26AD37;}
	.st9{fill:#1B8725;}
	.st10{fill:#4EB858;}
	.st11{fill:#1A8923;}
	.st12{fill:#1C9C2A;}
	.st13{fill:#14A421;}
	.st14{fill:#1B8C25;}
	.st15{fill:#1B8D24;}
	.st16{fill:#14A522;}
	.st17{fill:#4DAB54;}
	.st18{fill:#14A022;}
	.st19{fill:#208929;}
	.st20{fill:#1D9328;}
	.st21{fill:#4DAF54;}
	.st22{fill:#159E22;}
	.st23{fill:#178921;}
	.st24{fill:#1D8926;}
	.st25{fill:#199125;}
	.st26{fill:#159C21;}
	.st27{fill:#1B7E22;}
	.st28{fill:#208728;}
	.st29{fill:#0D9916;}
	.st30{fill:#FCFCFC;}
	.st31{fill:#347738;}
	.st32{fill:#226927;}
	.st33{fill:#187B1C;}
	.st34{fill:#4FB758;}
	.st35{fill:#26AF37;}
	.st36{fill:#4DB857;}
	.st37{fill:#1CA32C;}
	.st38{fill:#3DB249;}
	.st39{fill:#1EA42E;}
	.st40{fill:#1FA82F;}
	.st41{fill:#3CB248;}
	.st42{fill:#34B741;}
	.st43{fill:#34B641;}
	.st44{fill:#1A9627;}
	.st45{fill:#148D1E;}
	.st46{fill:#32B441;}
	.st47{fill:#3CB74A;}
	.st48{fill:#FFFFFF;}
	.st49{fill:#188E23;}
	.st50{fill:#138D1E;}
	.st51{fill:#28B038;}
	.st52{fill:#1B9828;}
	.st53{fill:#0D9216;}
	.st54{fill:#1BA22A;}
	.st55{fill:#189423;}
	.st56{fill:#23AC34;}
	.st57{fill:#1BA32A;}
	.st58{fill:#179822;}
	.st59{fill:#1CA22C;}
	.st60{fill:#1D9527;}
	.st61{fill:#19A426;}
	.st62{fill:#25AE36;}
	.st63{fill:#0F8E17;}
	.st64{fill:#1C9326;}
	.st65{fill:#19A326;}
	.st66{fill:#188E21;}
	.st67{fill:#1BA82A;}
	.st68{fill:#D5EAD6;}
	.st69{fill:#70BC76;}
	.st70{fill:#1BA92A;}
	.st71{fill:#BFDFC1;}
	.st72{fill:#16A022;}
	.st73{fill:#097810;}
	.st74{fill:#31B541;}
	.st75{fill:#3BB749;}
	.st76{fill:#189625;}
	.st77{fill:#1B8C26;}
	.st78{fill:#16A624;}
	.st79{fill:#1A9D29;}
	.st80{fill:#3FB34B;}
	.st81{fill:#097C10;}
	.st82{fill:#58BD62;}
	.st83{fill:#50BC5A;}
	.st84{fill:#2B9833;}
	.st85{fill:#4DB355;}
	.st86{fill:#3AAC45;}
	.st87{fill:#21B632;}
	.st88{fill:#2F2A1D;}
	.st89{fill:#23A230;}
	.st90{fill:#2F211A;}
	.st91{fill:#1A9827;}
	.st92{fill:#185114;}
	.st93{fill:#1C8A25;}
	.st94{fill:#3BB348;}
	.st95{fill:#22B033;}
	.st96{fill:#32B541;}
	.st97{fill:#28AE38;}
	.st98{fill:#26AE37;}
	.st99{fill:#2F211B;}
	.st100{fill:#2A311B;}
	.st101{fill:#189E25;}
	.st102{fill:#199E26;}
	.st103{fill:#38AC43;}
	.st104{fill:#48B251;}
	.st105{fill:#352924;}
	.st106{fill:#433835;}
	.st107{fill:#0D9917;}
	.st108{fill:#1DA32C;}
	.st109{fill:#50B458;}
	.st110{fill:#50BB5B;}
	.st111{fill:#159320;}
	.st112{fill:#1B9B28;}
	.st113{fill:#1A9C28;}
	.st114{fill:#45B650;}
	.st115{fill:#35B443;}
</style>
<g>
	<path class="st0" d="M175.37,2.88c0.07,0.07,0.15,0.07,0.22,0c1.56,0.43,3.18-0.16,4.73,0.33c0.2,0.01,0.39,0.02,0.59,0.03
		c0.86,0.3,1.75,0.07,2.62,0.15c0.3,0.03,0.77-0.09,0.62,0.51c-0.21,0.13-0.42,0.25-0.64,0.38c-13.03,2.4-26.09,4.67-39.15,6.88
		c-0.55,0.02-0.82,0.39-1.04,0.83c-1.73,3.27-3.51,6.51-5.24,9.78c-0.45,0.84-0.74,2.14-2.24,1.64c-0.96-1.83-0.84-3.88-0.95-5.83
		c-0.11-2.12-1.02-3.33-2.84-4.22c-1.01-0.49-2.52-0.43-2.79-1.99c1.06-0.83,2.12-1.67,3.19-2.5c0.56-0.28,0.91-0.89,1.58-1.01
		c0.3-0.26,0.61-0.53,0.91-0.79c0.56-0.25,0.9-0.84,1.53-0.99c2.21-1.67,4.42-3.34,6.63-5.02c1.77-0.24,3.54-0.31,5.31,0.05
		l-0.02-0.01c1.87,0.49,3.83-0.2,5.69,0.38l-0.03-0.02c1.52,0.46,3.13-0.16,4.65,0.34c0.2,0.01,0.4,0.02,0.6,0.03
		c1.67,0.46,3.42-0.2,5.08,0.35c0.08,0.08,0.15,0.08,0.23,0.01c1.67,0.45,3.42-0.19,5.08,0.34c0.19,0.01,0.38,0.01,0.57,0.02
		C171.95,2.98,173.7,2.33,175.37,2.88z"/>
	<path class="st0" d="M42,2.29c2.89,2.17,5.79,4.33,8.66,6.51c1.6,1.22,3.37,2.2,4.82,3.62c-1.58,1.23-3.57,1.75-5.15,3.02
		c-0.97,0.77-1.44,1.57-1.45,2.81c-0.01,1.99,0.27,4-0.2,5.98c-1.19,0.74-1.37-0.43-1.68-1.01c-1.54-2.89-3.21-5.71-4.74-8.61
		c-0.55-1.05-0.97-2.3-2.27-2.77C27.96,9.71,15.91,7.69,3.89,5.48C2.91,5.3,1.95,4.95,0.93,5.22c-0.24-0.2-0.48-0.4-0.72-0.61
		C0.21,3.84,0.82,4.16,1.2,4.1C1.82,4,2.47,4.24,3.07,3.93L3.05,3.95c1.78-0.56,3.64,0.09,5.42-0.36c0.2-0.01,0.4-0.01,0.6-0.02
		c1.55-0.5,3.18,0.1,4.74-0.33c0.07,0.07,0.15,0.07,0.22,0c1.67-0.55,3.42,0.1,5.1-0.35c0.07,0.08,0.14,0.08,0.21,0
		c1.78-0.55,3.63,0.09,5.42-0.37c0.21-0.01,0.41-0.02,0.62-0.02C26.9,2,28.5,2.62,30.02,2.16l-0.02,0.02
		c1.77-0.55,3.63,0.09,5.41-0.36c0.08,0.07,0.17,0.07,0.25,0c1.72-0.46,3.47-0.09,5.2-0.2C41.32,1.57,41.75,1.84,42,2.29z"/>
	<path class="st1" d="M57.29,57.12c-0.5-0.52-1.19-0.93-1.05-1.82c-0.33-0.47-0.17-0.98-0.12-1.48c0.51-4.62,0.65-9.26,0.99-13.89
		c0.15-1.99,0.32-3.98,0.58-5.96c0.08-0.18,0.22-0.32,0.4-0.41c0.92,0.08,1.21,0.88,1.58,1.51c3.52,5.93,6.97,11.9,10.52,17.81
		c0.95,1.58,0.38,3.37,0.99,4.98c0.54,4.19,0.3,8.43,0.77,12.63c0.07,0.64,0.04,1.3-0.46,1.82c-0.48,0.29-0.81,0.06-1.09-0.33
		c-1.17-1.31-2.34-2.62-3.51-3.93c-0.52-0.77-1.27-1.34-1.8-2.1c-0.23-0.25-0.47-0.49-0.7-0.74c-0.32-0.47-0.69-0.9-1.08-1.32
		c-0.69-0.74-1.39-1.48-2.08-2.22c-0.37-0.45-0.72-0.93-1.11-1.36c-0.62-0.73-1.25-1.46-1.87-2.19
		C57.9,57.83,57.57,57.49,57.29,57.12z"/>
	<path class="st2" d="M61.89,191.34c-0.95-0.06-1.94-0.04-2.44-1.1c-0.01-1.09,0.23-2.13,0.68-3.12c1.58-4.76,2.69-9.65,4.1-14.46
		c0.21-0.71,0.23-1.55,1.07-1.92c0.67,1.33,0.7,1.48,2.32,1.18c1.64-0.3,3.26,0.06,4.89-0.16c0.93-0.13,1.86-0.06,2.7-0.61
		c0.45-0.29,0.91-0.22,1.18,0.34c0.35,1.1,0.17,2.21,0.05,3.32c-0.52,4.72-0.98,9.44-1.28,14.17c0.06,1.3-0.3,2.55-0.48,3.82
		c-0.13,0.12-0.25,0.25-0.38,0.37c-2.6,0.2-5.2,0.32-7.8-0.06c0.02-0.81,0.65-0.68,1.13-0.69c0.98-0.01,1.96,0,2.92,0.21
		C67.61,192.54,64.75,191.94,61.89,191.34z"/>
	<path class="st3" d="M18.29,18.79c-1.05-0.83-2.11-1.65-3.16-2.48c-0.68-0.37-1.13-1.04-1.8-1.41c-0.6-0.47-1.2-0.95-1.8-1.42
		c-0.46-0.35-0.9-0.74-1.39-1.06C10,12.3,9.87,12.18,9.74,12.06c-0.44-0.38-0.94-0.7-1.35-1.13l0.03,0.02
		c-0.59-0.21-0.96-0.72-1.48-1.02c-1.59-1.4-3.47-2.45-4.91-4.04C1.79,4.81,2.49,5.12,3,5.27C4.02,5.58,4.98,6.06,5.93,6.5
		c9.06,4.25,18.2,8.35,27.26,12.61c0.87,0.65,2,0.96,2.63,1.94c1.97,2.42,4.47,4.3,6.69,6.46c0.8,0.77,1.67,1.48,2.45,2.28
		c1.64,1.67,1.61,2.33-0.14,4.06c-0.35,0.02-0.69,0.04-1-0.17c-1.44-0.71-2.89-1.43-4.33-2.14c-0.41-0.3-0.97-0.33-1.34-0.72l0.01,0
		c-0.81-0.4-1.7-0.61-2.49-1.04c-1.92-0.95-3.85-1.9-5.77-2.85c-0.42-0.26-0.89-0.4-1.32-0.64c-0.87-0.44-1.83-0.75-2.53-1.48
		c-0.44-0.39-0.95-0.69-1.34-1.15l0.03,0.03c-0.77-0.23-1.13-1.02-1.84-1.34c-1.07-0.84-2.14-1.67-3.22-2.51
		C19.22,19.5,18.78,19.11,18.29,18.79z"/>
	<path class="st3" d="M170.67,14.51c-1.76,1.38-3.52,2.75-5.29,4.13c-0.38,0.53-0.87,0.92-1.48,1.18
		c-5.38,5.01-12.12,7.71-18.57,10.89c-0.52,0.26-1.02,0.53-1.53,0.8c-0.55,0.37-1.23,0.41-1.79,0.74c-0.35,0.12-0.71,0.24-1.06,0.35
		c-1.36-0.11-1.25-1.48-1.89-2.2c-0.03-0.17-0.01-0.33,0.03-0.49c1.31-2.31,3.64-3.59,5.48-5.36c1.46-1.42,3.01-2.76,4.39-4.27
		c0.48-0.88,1.45-1.1,2.2-1.62c3.3-1.83,6.79-3.27,10.2-4.85c6.03-2.8,12.09-5.56,18.12-8.36c0.9-0.42,1.93-1.43,2.97-0.13
		c-3.17,2.39-6.37,4.74-9.35,7.36c-0.29,0.26-0.64,0.44-0.97,0.66C171.73,13.85,171.25,14.23,170.67,14.51z"/>
	<path class="st4" d="M110.12,193.16c-0.23-0.12-0.46-0.24-0.69-0.36c0.12-1.08-0.2-2.14-0.16-3.22c-0.38-4.68-0.88-9.35-1.29-14.03
		c-0.08-0.88-0.26-1.75,0.05-2.61c0.65-0.88,0.89-0.12,1,0.33c0.27,1.06,0.81,1.31,1.8,0.89c0.75-0.32,1.5-0.19,2.19,0.25
		c0.67,0.43,1.4,0.5,2.18,0.55c2.12,0.13,3.56-0.64,4.14-2.77c0.79,0.1,0.8,0.79,0.95,1.32c1.22,4.24,2.36,8.5,3.56,12.74
		c0.2,1.3,0.84,2.46,1.12,3.73c-0.92,1.41-2.49,1.32-3.86,1.71c-2.78,0.53-5.61,0.83-8.34,1.64
		C111.9,193.26,110.99,193.51,110.12,193.16z"/>
	<path class="st5" d="M182.45,5.32c-0.78-0.54-1.49-0.09-2.15,0.22c-6.89,3.17-13.76,6.37-20.63,9.58
		c-2.82,1.31-5.62,2.66-8.43,3.99c-2.42-2.23-4.68-4.62-7-6.95c-0.39-0.39-0.9-0.84-0.42-1.52c4.66-0.55,9.25-1.5,13.86-2.31
		c7.15-1.26,14.31-2.52,21.47-3.69c1.43-0.24,2.85-1.22,4.38-0.36C183.17,4.63,182.81,4.98,182.45,5.32z"/>
	<path class="st6" d="M33.18,19.5c-5.34-2.43-10.68-4.86-16.02-7.31c-4.7-2.15-9.38-4.33-14.08-6.49C2.74,5.55,2.24,5,2.03,5.89
		c-0.58,0.13-0.7-0.51-1.11-0.67c0.43-1.07,1.28-0.59,1.96-0.47c9.18,1.6,18.35,3.23,27.52,4.84c3.4,0.6,6.81,1.17,10.21,1.76
		c0.26,0.33,0.23,0.72-0.01,0.97C38.23,14.82,36.03,17.5,33.18,19.5z"/>
	<path class="st7" d="M140.98,114.84c1.04,1.49,1.94,3.05,2.54,4.79c0.21,0.61,0.33,1.07-0.16,1.55c-1.85,0.43-3.53,1.56-5.54,1.3
		c-1.05-0.89-1.66-2.05-2.06-3.35c-0.3-2.35-1.64-4.28-2.57-6.37c-4.91-11-9.9-21.96-14.72-32.99c-0.64-1.48-1.88-2.76-1.73-4.54
		c1.09-0.39,1.26,0.6,1.6,1.17c3.4,5.65,6.69,11.36,10.08,17.01c3.78,6.3,7.35,12.73,11.2,19
		C140.1,113.2,140.24,114.18,140.98,114.84z"/>
	<path class="st8" d="M41.35,117.31c0.39-0.69,0.79-1.39,1.18-2.08c1.07-0.66,1.41-1.86,1.99-2.85
		c6.07-10.42,12.21-20.8,18.38-31.18c0.78-1.32,1.46-2.69,2.32-3.96c0.32-0.48,0.51-1.27,1.4-1c0.42,0.74,0,1.37-0.28,2
		c-4.07,9.15-8.22,18.26-12.29,27.4c-1.72,3.87-3.35,7.79-5.24,11.59c-0.29,0.59-0.45,1.21-0.49,1.87
		c-0.34,1.33-1.12,2.39-2.06,3.34c-1.93,0.22-3.62-0.83-5.46-1.08c-0.63-0.38-0.92-0.87-0.51-1.58c0.15-0.34,0.29-0.68,0.44-1.03
		C40.73,118.2,41.02,117.75,41.35,117.31z"/>
	<path class="st9" d="M60.47,187.48c-0.63,0.81-0.09,2.06-1.02,2.77c-1.18-1.06-2-2.42-2.84-3.72c-0.82-1.28,0.01-2.58,0.37-3.84
		c0.18-0.89,0.18-1.82,0.65-2.63c0.71-2.97,1.42-5.94,2.13-8.91c0.21-0.94,0.4-1.88,0.77-2.77l-0.02,0.03
		c0.35-1.93,0.88-3.82,1.38-5.71c0.11-0.51-0.13-1.1,0.36-1.52c0.48-1.86,0.88-3.74,1.43-5.58l0.08-0.08l-0.05-0.1
		c0.17-1.02,0.28-2.06,0.7-3.02c0.07-0.99,0.31-1.93,0.67-2.85c0.28-0.8,0.24-1.7,0.7-2.45c0.31-0.57-0.25-1.3,0.36-1.81
		c0.47-1,0.07-1.89-0.36-2.78c-0.51-0.39-0.25-0.95-0.32-1.43c-0.49-1.26-0.44-2.61-0.75-3.9l0,0c-0.42-0.52,0.09-1.24-0.36-1.76
		l0-0.01c-0.31-0.48-0.06-1.05-0.23-1.55c0.17-0.83,0.66-1.07,1.11-0.31c0.63,1.07,1.38,2,2.36,2.76c0.28,0.21,0.57,0.66,0.27,0.89
		c-1.26,1-0.53,1.93-0.01,2.9c0.14,0.25,0.13,0.56,0.15,0.86c0.04,1.27-0.47,2.5-0.27,3.78c0.17,0.75,0.59,1.42,0.59,2.21
		c-0.94,6-2.15,11.95-3.27,17.91C63.66,172.42,62.34,180.01,60.47,187.48z"/>
	<path class="st10" d="M112.39,71.47c-0.03,0.13-0.04,0.26-0.04,0.39c-0.28,0.48-0.62,0.8-1.2,0.56
		c-5.23-4.72-10.58-9.28-15.92-13.87c-0.56-0.48-1.13-0.93-1.5-1.6c-0.34-0.63-0.2-1.04,0.5-1.18c4.29,0.53,8.46,0.17,12.41-1.82
		c0.43-0.07,1.02,0.22,0.97-0.73c-0.05-0.91,0.27-1.74,1.21-2.1c1.97-0.02,3.92-0.86,5.89-0.13c0.55,0.9,0.24,1.89,0.14,2.81
		C114.26,59.72,113.46,65.62,112.39,71.47z"/>
	<path class="st11" d="M109.76,189.97c0.07,0.62,0.09,1.25,0.23,1.84c0.14,0.56,0.02,0.88-0.56,0.99c-0.37-0.24-0.75-0.47-1.12-0.71
		c-0.68-0.49-1.44-0.88-2.09-1.42c-0.46-0.35-0.91-0.7-1.37-1.05c-0.54-1.08,0.05-2.27-0.36-3.36l0.06-0.09l-0.07-0.09
		c-0.53-1.04,0.09-2.2-0.35-3.24l0.02,0.03c-0.39-2.81-0.67-5.63-0.93-8.45c-0.06-0.64,0.13-1.29-0.15-1.91
		c0.08-0.09,0.07-0.18-0.02-0.26c-0.37-2.69-0.58-5.39-0.93-8.07c-0.23-1.72-0.2-3.46-0.46-5.17l0.06-0.11l-0.08-0.1
		c-0.48-2.09-0.53-4.24-0.74-6.36c-0.16-1.65-1.07-1.98-2.41-1.98c-0.29,0-0.59,0.01-0.84-0.19c0.42-1.12,1.42-0.78,2.22-0.85
		c0.75-0.06,1.51-0.04,2.25,0.16c0.42,0.12,0.79,0.34,1.09,0.67c0.32,0.44,0.49,0.94,0.57,1.47c1.48,9.71,3.3,19.37,4.74,29.09
		C108.97,183.85,109.26,186.92,109.76,189.97z"/>
	<path class="st11" d="M74.68,192.82c-0.96-1.18,0.35-2.37-0.01-3.56c1.36-11.21,3.41-22.31,5.18-33.45
		c0.28-1.73,0.39-3.52,1.19-5.14c0.32-0.39,0.69-0.73,1.14-0.98c1-0.35,2.05-0.33,3.08-0.31c0.61,0.01,1.31,0.03,1.54,0.82
		c-1.06,0.51-2.45,0.06-3.32,1.11l0.02-0.03c-0.22,3.12-0.73,6.21-0.86,9.34c-0.01,0.34,0.1,0.71-0.24,0.97l0.03-0.04
		c-0.24,2.26-0.33,4.53-0.73,6.77l0.03-0.03c-0.21,3.01-0.55,6.02-0.88,9.01c-0.41,3.74-0.71,7.5-1.26,11.23l0.02-0.03
		c-0.19,0.71-0.17,1.56-1.14,1.78c-0.33,0.21-0.66,0.43-0.99,0.64c-0.55,0.73-1.39,1.05-2.14,1.51
		C75.11,192.56,74.9,192.69,74.68,192.82z"/>
	<path class="st9" d="M124.99,189.97c-1.05-0.95-1.34-2.2-1.4-3.54c-2.97-13.03-5.21-26.2-7.63-39.33c-0.07-0.8,0.32-1.44,0.7-2.09
		c0.12-0.14,0.27-0.24,0.45-0.3c0.18-0.04,0.36-0.03,0.53,0.01c0.52,0.2,0.43,0.71,0.59,1.11c0.08,0.55-0.18,1.16,0.3,1.63
		c0.77,1.32,0.72,2.85,1.15,4.27c0.04,0.48-0.19,1.01,0.26,1.41c0.68,1.34,0.78,2.83,1.15,4.26l-0.01-0.02
		c0.54,0.89,0.46,1.94,0.72,2.91c-0.1,0.99,0.31,1.88,0.6,2.79c0.65,0.86,0.54,1.94,0.81,2.9c0.22,2.04,0.74,4,1.45,5.92
		c0.49,0.81,0.48,1.76,0.66,2.65c-0.01,0.57-0.07,1.15,0.39,1.6c0.49,0.89,0.42,1.92,0.71,2.86l0-0.02c0.47,1.4,0.76,2.85,1.06,4.3
		c0.03,0.48-0.16,0.99,0.25,1.4c0.45,0.57,0.46,1.13-0.01,1.7C126.81,187.58,125.9,188.78,124.99,189.97z"/>
	<path class="st12" d="M112.64,71.62c-0.62-1.86,0.23-3.63,0.4-5.43c0.34-3.54,1.3-7.01,1.36-10.59c0.01-0.46,0.2-0.91,0.31-1.36
		c-0.11-0.15-0.14-0.31-0.1-0.49c0.21-0.39,0.4-0.82,0.98-0.57c1.45,1.09,3.21,0.44,4.79,0.8c1.17,0.27,2.51-0.09,3.46,0.97
		c0.28,0.32,0.49,0.11,0.73-0.09c1.1-0.94,1.93-0.32,2.71,0.5c0.03,0.28,0.02,0.53-0.33,0.6c-0.3,0.34-0.61,0.69-0.91,1.03
		c-0.56,1.02-1.44,1.74-2.27,2.51c-0.07,0.1-0.15,0.19-0.22,0.29c-0.14,0.58-0.58,0.88-1.04,1.17l0.01-0.01
		c-0.62,0.94-1.47,1.67-2.25,2.46c-0.08,0.1-0.17,0.2-0.25,0.3c-0.17,0.55-0.58,0.88-1.07,1.14c-0.22,0.28-0.44,0.55-0.66,0.83
		c-0.44,0.39-0.7,0.95-1.2,1.27c-0.2,0.23-0.4,0.45-0.6,0.68c-0.56,1.01-1.45,1.71-2.25,2.51C113.7,70.63,113.17,71.13,112.64,71.62
		z"/>
	<path class="st13" d="M62.52,104.17c-0.39,0.48-0.71,0.99-0.67,1.64c-0.13,0.57-0.25,1.14-0.7,1.56l0.01-0.02
		c-0.33,0.57-0.22,1.35-0.86,1.77c-0.07,0.21-0.14,0.42-0.21,0.64c-0.15,0.54-0.28,1.1-0.68,1.53l0-0.01
		c-0.38,0.53-0.26,1.31-0.84,1.74c-0.72,1.22-1.37,2.46-1.66,3.86c-0.18,0.52-0.31,1.06-0.66,1.5c-0.13,0.1-0.26,0.21-0.39,0.31
		c-0.3,0.02-0.58-0.06-0.86-0.12c-0.51-0.11-1.12-0.13-1.33-0.69c-0.25-0.68,0.44-0.84,0.83-1.15c0.24-0.19,0.41-0.4,0.4-0.72
		c-1.16,0.27-2.2-0.3-1.85-1.16c0.54-1.31-0.35-1.55-0.97-2.1c-0.13-0.11-0.19-0.29-0.23-0.46c1.02-2.85,2.85-5.25,4.36-7.82
		c3.13-5.32,6.31-10.61,9.48-15.9c0.35-0.59,0.48-1.73,1.7-1.26c0.38,0.86-0.09,1.6-0.35,2.36c-1.23,3.72-2.89,7.3-3.73,11.15
		c-0.14,0.64-0.19,1.27-0.15,1.92C63.16,103.3,63,103.81,62.52,104.17z"/>
	<path class="st14" d="M117.61,144.95c-0.13,0-0.26,0.01-0.4,0.01c-0.98-1.88-0.87-3.98-1.2-5.99c-0.66-3.99-1.45-7.96-1.77-12
		c-0.03-1.69,0.14-3.36,0.71-4.96c1.42-0.74,2.34,0.24,3.23,1.03c1.17,1.03,1.86,0.96,2.51-0.48c0.33-0.74,0.6-1.51,0.72-2.33
		c0.05-0.34,0.32-0.64,0.78-0.43c0.41,0.97-0.07,2.03,0.31,2.99l0,0.03c-0.22,1.24-0.2,2.52-0.7,3.7l0.01-0.02
		c-0.39,0.55,0.09,1.27-0.35,1.81l-0.08,0.08l0.05,0.1c-0.34,0.6,0.13,1.35-0.38,1.92l0.01-0.03c-0.16,0.47,0.03,1.02-0.3,1.46
		c-0.03,0.07-0.06,0.14-0.08,0.22c-0.01,0.04,0.01,0.08,0.02,0.12c-0.2,1.31-0.32,2.63-0.75,3.89l0.03-0.04
		c-0.17,1.21-0.27,2.44-0.71,3.59l0.02-0.03c-0.39,0.53,0.24,1.33-0.46,1.79c-0.32,0.31-0.21,0.71-0.21,1.08
		C118.4,143.34,118.1,144.18,117.61,144.95z"/>
	<path class="st15" d="M67.57,140.71c0.37-0.95-0.98-1.12-0.88-2.12c0.09-0.83-0.61-1.8,1.68-1.12c-1.86-1.46-3.16-2.43-3.64-4.06
		c-0.13,0.1-0.26,0.19-0.39,0.29c-1-0.37-0.17-1.35-0.63-1.9l0.02,0.04c-0.51-0.56-0.04-1.32-0.38-1.92l0.05-0.1l-0.08-0.08
		c-0.35-1.17-0.48-2.39-0.7-3.59l0.01,0.03c-0.48-0.53,0.01-1.26-0.36-1.81l0.02,0.04c-0.71-2.2,0.19-4.37,0.17-6.55
		c0.82,0.11,1.43,0.76,1.56,1.69c0.04,0.28-0.12,0.56-0.03,0.86c0.31,1.09,0.86,1.24,1.71,0.45c1.32-1.24,2.59-1.16,3.63,0.21
		c0.67,1.76,0.73,3.64,0.99,5.47c0.05,0.3,0.04,0.59-0.02,0.88c-0.58,3.65-1.13,7.3-1.7,10.95
		C68.5,139.19,68.79,140.32,67.57,140.71z"/>
	<path class="st16" d="M122.88,107.46c-0.22-0.49-0.44-0.99-0.66-1.48c-0.28-0.46-0.49-0.95-0.48-1.5c-0.52-3.75-1.72-7.31-3-10.85
		c-0.61-1.68-1.59-3.31-1.36-5.22c1.15-0.41,1.33,0.65,1.67,1.23c2.89,4.91,5.86,9.77,8.76,14.67c0.72,1.21,1.42,2.44,2.13,3.65
		c0.32,0.55,0.75,1.08,0.53,1.79c-0.21,0.39-0.93,0.17-0.88,0.31c0.38,1.06-0.99,1.91-0.56,2.65c0.98,1.68,0.18,2.02-1.24,2.2
		c-0.33,0.04-0.58,0.38-0.94,0.44c-0.58,0.06-0.51-0.54-0.79-0.79c-0.59-1.33-1.19-2.66-1.78-4
		C123.68,109.61,123.48,108.44,122.88,107.46z"/>
	<path class="st17" d="M129.27,11.36c0.75,1.01,2,1.16,3.03,1.62c1.97,0.87,3.03,2.08,3.04,4.37c0,2.02,0.42,4.03,0.66,6.05
		c1.15,1.15,0.58,2.8,1.19,4.11c0.07,0.4-0.08,0.72-0.35,0.99c-1.41,0.72-2.53,1.99-4.18,2.27c-1.31-0.45-1.97-1.47-2.4-2.7
		c-0.18-2.54,0.27-5.05,0.43-7.58c0.07-1.11,0.18-2.22,0.21-3.34c0.36-2.04-0.16-3.62-2.26-4.39c-0.26-0.24-0.48-0.51-0.46-0.9
		C128.67,11.97,128.89,11.48,129.27,11.36z"/>
	<path class="st18" d="M126.62,115.25c0.62-0.4,0.98-1.41,2.03-0.84c0.19,0.11,0.46-0.05,0.53-0.32c0.11-0.4-0.08-0.73-0.41-0.88
		c-1.07-0.49-0.72-1-0.06-1.52c0.47-0.37,1.02-0.65,0.19-1.25c-0.1-0.07,0.25-0.75,0.39-1.15c0.35,0.2,0.7,0.39,1.06,0.59
		c0.32-0.11,0.62,0,0.77,0.25c1.8,2.9,3.86,5.65,4.9,8.96c0.59,1.06,1.18,2.12,1.77,3.19c-0.71,0.7-1.63,0.46-2.48,0.53
		c-1.43,0.11-2.9-0.27-4.28,0.39c-1.04-0.34-1.71-0.98-2.11-2.05c-0.61-1.66-1.4-3.25-2.11-4.87
		C126.53,115.96,126.58,115.6,126.62,115.25z"/>
	<path class="st19" d="M62.75,8.92c0.43-0.27,0.85-0.54,1.28-0.8c0.63-0.35,1.2-0.81,1.92-0.97c2.38-1.3,4.61-2.88,7.28-3.57
		c0.53-0.45,1.26,0.05,1.8-0.36l-0.02,0.01c1.02-0.47,2.15-0.47,3.22-0.71l-0.03,0.01c0.54-0.47,1.26,0.01,1.81-0.35L80,2.2
		c0.8-0.56,1.77,0.03,2.59-0.38c1.3-0.02,2.54-0.32,3.77-0.73c0.51-0.37,1.1-0.11,1.65-0.2c0.88,0.23,0.46,0.64,0.08,0.93
		c-0.67,0.49-1.47,0.73-2.24,1.01c-5.56,2.06-11.08,4.22-16.63,6.3c-0.16,0.08-0.33,0.15-0.5,0.22c-3.95,1.54-7.86,3.2-11.85,4.64
		c-0.79,0.28-1.6,0.92-2.46,0.14c0.05-1.19,1.15-1.13,1.85-1.54c1.53-0.9,3.06-1.79,4.58-2.69C61.48,9.57,62.07,9.15,62.75,8.92z"/>
	<path class="st20" d="M66.51,76.2c-2.56,3.6-4.58,7.53-6.86,11.3c-3.81,6.29-7.49,12.66-11.21,19c-1.58,2.69-3.1,5.41-4.72,8.07
		c-0.17,0.28-0.19,1.57-1.18,0.66c0.33-0.55,0.65-1.11,0.98-1.66c0.23-0.69,0.64-1.29,0.99-1.92c1.02-1.99,2.01-4,3.27-5.85
		c0.15-0.74,0.6-1.33,0.99-1.95c0.36-0.62,0.72-1.25,1.08-1.87c0.27-0.42,0.38-0.91,0.68-1.32c0.6-1.1,1.2-2.19,1.8-3.29
		c0.31-0.4,0.34-0.95,0.71-1.32c0.83-1.53,1.66-3.06,2.48-4.59c0.58-0.77,0.86-1.7,1.4-2.49c0.48-0.86,0.95-1.72,1.43-2.58
		c0.28-0.41,0.37-0.93,0.7-1.31c0.83-1.54,1.66-3.08,2.5-4.61c0.38-0.88,0.9-1.67,1.4-2.48c0.61-1.16,1.28-2.29,1.82-3.48
		c0.5-1.09,1.7-0.84,2.44-1.44c1.32-0.4,2.68-0.13,4.01-0.27c0.2,0.07,0.32,0.22,0.35,0.43c-0.74,1.13-2.11,0.25-2.99,0.95
		C67.65,74.59,67.35,75.67,66.51,76.2z"/>
	<path class="st19" d="M128.18,11.86c0.24,0.19,0.48,0.38,0.72,0.57c-0.49,1.19-1.36,0.52-2,0.31c-4.23-1.38-8.43-2.87-12.6-4.41
		c-0.27-0.06-0.54-0.14-0.8-0.24c-5.52-1.87-11.06-3.69-16.58-5.54c-0.5-0.17-1.01-0.32-1.5-0.53c-0.37-0.17-0.93-0.35-0.86-0.76
		c0.09-0.58,0.69-0.5,1.16-0.47c0.64,0.27,1.37-0.08,2,0.3c0.07,0.1,0.14,0.11,0.23,0.03c0.82,0.42,1.79-0.2,2.58,0.39l-0.04-0.03
		c0.94,0.38,1.97-0.14,2.9,0.31c0.07,0.09,0.15,0.1,0.25,0.03c2.53,0.38,5.09,0.62,7.53,1.45c0.46,0.41,0.97,0.72,1.62,0.69
		c0.73,0.4,1.62,0.51,2.24,1.13l-0.03-0.03c0.71,0.42,1.57,0.54,2.17,1.17c1.11,0.61,2.18,1.3,3.42,1.64
		c0.52,0.27,1.16,0.31,1.54,0.84c1.58,0.85,3.13,1.77,4.84,2.35c0.47,0.11,0.89,0.31,1.23,0.66L128.18,11.86z"/>
	<path class="st21" d="M56.26,12.58c-0.3,0.83-1.23,0.79-1.78,1.29c-0.16,0.37-0.37,0.74-0.74,0.91c-1.35,0.61-1.54,1.7-1.29,2.99
		c0.46,3.16,0.99,6.3,1.49,9.44c0.1,0.64,0.28,1.27,0.13,1.93c-0.42,0.97-0.88,1.89-1.97,2.27c-1.52-0.11-2.59-1.17-3.83-1.87
		c-0.28-0.29-0.42-0.64-0.4-1.05c0.24-1.34-0.33-2.79,0.57-4.03c0-2.28,0.06-4.56-0.03-6.84c-0.04-1.08,0.37-1.71,1.23-2.28
		c1.84-1.21,3.57-2.62,5.86-2.93C55.74,12.47,56,12.52,56.26,12.58z"/>
	<path class="st20" d="M140.98,114.84c-0.51,0.36-0.58-0.15-0.73-0.41c-4.82-8.2-9.63-16.4-14.45-24.6
		c-2.76-4.71-5.53-9.41-8.31-14.11c-0.14-0.24-0.41-0.4-0.62-0.6c-0.63-0.5-1.31-0.92-1.92-1.45c-0.09-0.26-0.07-0.5,0.09-0.73
		c0.58-0.24,1.02,0.07,1.47,0.35c0.87,0.06,1.68,0.25,2.38,0.81c0.55,0.31,0.52,0.94,0.81,1.4c1.7,3.83,4.03,7.32,5.91,11.05
		c0.54,1.08,1.21,2.09,1.81,3.14c0.52,0.32,0.49,0.94,0.8,1.38c0.53,1.57,1.54,2.88,2.34,4.3c0.6,0.29,0.57,0.94,0.82,1.44
		c0.26,1.22,1.07,2.14,1.69,3.16c0.55,0.31,0.52,0.95,0.8,1.41c0.43,0.84,0.68,1.77,1.33,2.49c0.68,0.54,0.78,1.39,1.16,2.09
		c0.83,2.01,1.96,3.86,3.1,5.7c0.53,0.32,0.5,0.95,0.8,1.39C140.5,113.66,140.74,114.25,140.98,114.84z"/>
	<path class="st22" d="M51.99,112.35c0.76,0.41,1.52,0.83,2.42,1.32c-0.54,0.52-1.76,0.85-0.72,1.86c0.11,0.1,0.15,0.27,0.22,0.41
		c0.07-0.08,0.12-0.18,0.2-0.25c0.37-0.38,0.88-0.71,1.19-0.12c0.27,0.52,0.43,1.27-0.48,1.57c-0.32,0.1-0.61,0.26-0.94,0.41
		c0.38,0.99,1.66,0.23,1.99,1.15c-0.12,1.11-1.12,1.9-1.1,3.06c-0.24,0.81-0.73,1.2-1.6,0.95c-1.69,0.16-3.38,0.12-5.07,0.1
		c-0.64-0.01-1.3,0.01-1.79-0.53c0.29-1.23,1.38-2.02,1.77-3.19C48.91,116.57,49.99,114.19,51.99,112.35z"/>
	<path class="st23" d="M132.8,30.52c1.36-0.6,2.38-1.82,3.88-2.18c1.41-0.21,2.27,0.37,2.52,1.79c-2.2,2.43-4.63,4.61-7.12,6.72
		c-0.11,0.39-0.47,0.25-0.72,0.35c-1.03,0.64-1.78,0.37-2.29-0.69c-0.38-0.8-0.96-1.48-1.45-2.21c-0.33-0.75-0.22-1.54-0.24-2.33
		c0.07-1.35,0.33-2.65,0.93-3.86c1.25-1.05,1.49,0.4,2.14,0.86C130.69,30.32,131.27,31.15,132.8,30.52z"/>
	<path class="st23" d="M48.47,29.4c1.33,0.31,2.27,1.36,3.51,1.84c0.74-0.01,1.83,0.86,1.94-0.76c0.27-0.45,0.69-0.69,1.17-0.85
		c0.73-0.06,1.49-0.27,2.02,0.48c0.07,0.15,0.13,0.3,0.16,0.47c0.28,2.66-1.43,4.7-2.21,7.03c-0.29,0.85-1.04,0.54-1.65,0.54
		c-0.23,0.11-0.32-0.02-0.38-0.22c-2.18-1.54-3.89-3.6-5.92-5.3c-0.66-0.55-1.37-1.2-0.93-2.07C46.6,29.75,47.34,29.05,48.47,29.4z"
		/>
	<path class="st24" d="M53.41,38.15c0.94-0.16,1.19-0.76,1.57-1.64c0.86-1.96,1.96-3.8,1.95-6.03c1.33,0.74,1.55,1.85,1.07,3.19
		c-0.39,6.25-0.76,12.5-1.18,18.75c-0.03,0.49-0.35,0.97-0.54,1.46c-0.37-0.28-0.22-0.73-0.36-1.09c-0.01-0.11-0.03-0.22-0.04-0.33
		c-0.47-1.09,0.08-2.27-0.33-3.37l0.07-0.09l-0.06-0.09c-0.55-1.28,0.1-2.66-0.36-3.95l0.02,0.03c-0.36-1.75-0.29-3.54-0.54-5.3
		c-0.1-0.71-0.16-1.23-0.93-1.41C53.63,38.25,53.52,38.2,53.41,38.15z"/>
	<path class="st25" d="M48.47,29.4c-0.47,0-0.69,0.4-1.03,0.61c-1.49,0.94-1.41,1.09-0.06,2.29c1.98,1.76,4.05,3.46,5.65,5.62
		c-0.38-0.01-0.77,0-1.04-0.35c-0.47-0.25-1.02-0.34-1.44-0.69c-0.73-0.36-1.46-0.72-2.18-1.08c-0.71-0.32-1.48-0.52-2.07-1.08
		l0.01,0c-0.48-0.33-1.24-0.21-1.48-0.92c1.26-2.6,0.92-3.21-2.2-5.71c-2.37-1.9-4.54-4.07-6.79-6.12c-0.19-0.17-0.53-0.36-0.18-0.7
		c0.5-0.26,0.92,0.02,1.32,0.26c3.54,2.13,7,4.37,10.51,6.55c0.25,0.16,0.45,0.37,0.56,0.66C48.19,28.96,48.33,29.18,48.47,29.4z"/>
	<path class="st26" d="M121.08,111.42l-0.06,0.12l0.08,0.11c0.42,1.14,0.16,2.36,0.44,3.51c0.03,0.11,0.06,0.24,0.02,0.34
		c-0.33,0.89,0.05,2.47-1.06,2.5c-0.82,0.02-1.81-1.05-2.42-1.99c-0.41-0.62-0.53-1.32-0.56-2.01c-0.03-0.68-0.23-1.25-0.66-1.76
		c-0.3-2.19,0.69-4.21,0.79-6.35c0.02-0.46,0.17-0.91,0.24-1.37c0.51-1.41,0.04-3.11,1.3-4.28c0.44,0.1,0.62,0.45,0.79,0.82
		c0.31,0.76,0.08,1.57,0.25,2.34C120.33,106.08,120.93,108.72,121.08,111.42z"/>
	<path class="st27" d="M46.29,122.27c1.82,0,3.64,0,5.47,0.02c0.56,0.01,1.19-0.19,1.65,0.36c0.12,0.17,0.09,0.27-0.13,0.29
		c-2.29,0.81-4.59,1.58-6.86,2.45c-0.99,0.38-1.71,0.29-2.27-0.63c-0.4-0.28-0.74-0.62-1.03-1.02c-0.61-0.61-1.23-1.21-1.84-1.82
		c-0.14-0.21-0.47-0.32-0.33-0.67C42.85,120.9,44.46,122.19,46.29,122.27z"/>
	<path class="st27" d="M131.03,123.18c0-0.97,0.68-0.9,1.34-0.9c1.81,0,3.61-0.01,5.42-0.01c1.3-0.12,2.51-0.56,3.74-0.94
		c0.58-0.18,1.19-0.64,1.83-0.14c-1.18,1.14-2.44,2.21-3.52,3.43c-0.85,0.96-1.83,0.95-2.86,0.7c-0.82-0.2-1.58-0.6-2.37-0.92
		c-0.57-0.29-1.19-0.45-1.79-0.66C132.22,123.55,131.62,123.37,131.03,123.18z"/>
	<path class="st28" d="M127.85,34.39c0.88,0.15,1.22,0.92,1.44,1.57c0.37,1.09,1.01,1.44,2.06,1.25c-0.1,0.12-0.21,0.25-0.31,0.37
		c-0.96,0.24-1.24,0.91-1.26,1.83c-0.02,0.68,0.24,1.4-0.2,2.05l0.02-0.03c-0.28,2.89-0.44,5.78-0.87,8.66
		c-0.04,0.29-0.02,0.59-0.36,0.72c-1.01-0.07-1.03-0.89-1.04-1.56c-0.1-4.47-0.08-8.95-0.01-13.42
		C127.33,35.3,127.42,34.78,127.85,34.39z"/>
	<path class="st29" d="M117.57,88.25c0.71,3.32,2.12,6.4,3.17,9.6c0.71,2.16,1.43,4.36,1.13,6.71c-0.24,0-0.27-0.24-0.4-0.36
		c-0.22-0.48-0.44-0.95-0.66-1.43c-0.46-0.28-0.56-0.77-0.72-1.22c-0.06-0.41-0.31-0.76-0.41-1.16c-0.12-0.33-0.38-0.58-0.53-0.89
		c-1.06-2.19-1.2-4.63-1.86-6.93c-0.44-1.52-0.84-3.04-1.23-4.57c-0.17-0.65-0.51-1.37,0.23-1.93
		C117.26,86.47,117.73,87.18,117.57,88.25z"/>
	<path class="st25" d="M132.07,36.86c-0.04-0.04-0.11-0.13-0.11-0.13c2.34-2.28,4.48-4.77,7.23-6.6c0.81,0.67,0.87,1.87,1.76,2.48
		C138.1,34.25,135.1,35.58,132.07,36.86z"/>
	<path class="st30" d="M83.47,151.32c-0.09-1.1,0.84-0.71,1.35-0.87c0.6-0.19,1.25-0.21,1.87-0.3c0.44-0.44,1-0.62,1.59-0.67
		c2.63-0.2,5.26-0.14,7.9-0.04c0.6,0.02,1.14,0.24,1.57,0.7c3.24,0.52,3.24,0.52,3.51,3.92c0.12,1.57,0.25,3.15,0.38,4.72
		c-0.53-1.49-0.6-3.03-0.76-4.59c-0.35-3.56-0.29-3.25-3.31-3.63c-3.94-0.5-7.83-0.25-11.73,0.09
		C85.03,150.73,84.26,151.09,83.47,151.32z"/>
	<path class="st31" d="M61.89,191.34c1.77-0.78,3.37,0.43,5.09,0.47c1.36,0.03,2.72,0.48,4.08,1.04c-1.51,0-3.02,0-4.53,0
		c-0.23,0.18-0.47,0.14-0.72,0.02C64.43,192.52,63.07,192.17,61.89,191.34z"/>
	<path class="st32" d="M112.93,193.04c1.43-1.15,3.24-0.9,4.87-1.24c1.05-0.22,2.2-0.94,3.33-0.12c-1,0.94-2.4,0.9-3.56,1.45
		C116.02,193.41,114.47,193.57,112.93,193.04z"/>
	<path class="st30" d="M79.58,188.54c0.51-6.77,1.19-13.52,2.14-20.24c0.12,3.52-0.53,6.97-0.89,10.45
		c-0.28,2.73-0.56,5.45-0.85,8.17C79.92,187.48,80.2,188.12,79.58,188.54z"/>
	<path class="st30" d="M101.65,159c0.68,4.39,1.12,8.81,1.39,13.25c-0.89-2-0.73-4.2-0.97-6.29
		C101.8,163.67,101.33,161.34,101.65,159z"/>
	<path class="st30" d="M121.39,115.56c-0.37-1.28-0.2-2.61-0.29-3.92c1.08,1.66,0.62,3.61,0.95,5.41c0.34,1.86,0.74,3.8,0.45,5.74
		c-0.21-1.03-0.41-2.06-0.62-3.09C120.95,118.41,121.3,116.97,121.39,115.56z"/>
	<path class="st30" d="M128.46,50.69c0.38-3.08,0.76-6.17,1.14-9.25c0.14,3.61-0.36,7.17-1,10.71c-0.07-0.06-0.13-0.12-0.2-0.18
		C128.16,51.53,128.18,51.1,128.46,50.69z"/>
	<path class="st30" d="M120.34,101.4c0.24,0.43,0.55,0.84,0.47,1.38c-1.08,1.62,0.05,3.24,0.09,4.86c0.03,1.24,0.21,2.52,0.18,3.79
		c-0.55-2.71-0.86-5.45-1.07-8.2C119.98,102.58,119.42,101.86,120.34,101.4z"/>
	<path class="st30" d="M103.06,172.51c0.58,3.43,0.92,6.89,1.08,10.36c-0.9-1.1-0.46-2.49-0.63-3.71
		C103.2,176.98,102.76,174.75,103.06,172.51z"/>
	<path class="st30" d="M82.4,161.6c0.18-3.46,0.47-6.9,1.1-10.31c0.23,3.35-0.63,6.61-0.76,9.93
		C82.73,161.35,82.51,161.47,82.4,161.6z"/>
	<path class="st30" d="M62.92,117.57c-0.52,2.24-0.84,4.51-0.6,6.82c-0.71-0.54-0.4-1.31-0.4-1.97c0-2.58,0.35-5.12,1.01-7.62
		c0.07,0.07,0.15,0.14,0.23,0.21C63.51,115.9,63.64,116.77,62.92,117.57z"/>
	<path class="st33" d="M63.94,100.97c-0.33,0.15-0.29,0.44-0.28,0.72c-0.31,0.17-0.01,1.09-0.82,0.67c0.21-2.44,1.36-4.57,2.34-6.74
		c0.13-0.28,0.41-0.41,0.72-0.16c0.51,1.23-0.27,2.28-0.51,3.4c-0.26,0.39-0.56,0.77-0.7,1.23
		C64.54,100.48,64.34,100.81,63.94,100.97z"/>
	<path class="st30" d="M63.31,112c-0.06-2.9,0.4-5.73,1.03-8.54c0.08,0.07,0.15,0.14,0.23,0.21c0.43,2.86-0.02,5.63-0.95,8.33
		C63.52,112,63.41,112,63.31,112z"/>
	<path class="st30" d="M65.81,192.87c0.24-0.01,0.48-0.01,0.71-0.02c2.57,0.59,5.19,0.08,7.78,0.34
		C71.45,193.54,68.6,194.11,65.81,192.87z"/>
	<path class="st30" d="M97.71,1.08c-0.67-0.02-1.33-0.04-2-0.05c-1.8-0.1-3.61,0-5.4-0.34c-0.19-0.07-0.34-0.19-0.45-0.36
		C92.58-0.45,95.15,0.31,97.71,1.08z"/>
	<path class="st30" d="M116.5,73.3c-0.54,0.28-0.87-0.58-1.42-0.26c-1.24,0.81-2.61,0.43-3.94,0.39c-0.2-0.04-0.39-0.12-0.56-0.24
		c-0.33-0.99,0.32-0.92,0.95-0.88c0.44,0.13,0.73-0.18,1.06-0.36c0.27,1.14,1.2,0.54,1.84,0.7C115.14,72.85,116.11,72.16,116.5,73.3
		z"/>
	<path class="st30" d="M111.16,3.27c-2.51-0.48-5.02-0.97-7.53-1.45C106.22,1.88,108.79,2.09,111.16,3.27z"/>
	<path class="st30" d="M53.75,38.29c0.75-0.22,1.04,0.07,1.08,0.84c0.1,1.96,0.26,3.92,0.39,5.87c-0.77-1.54-0.35-3.27-0.72-4.88
		C54.34,39.44,54.36,38.76,53.75,38.29z"/>
	<path class="st30" d="M112.93,193.04c1.55,0.03,3.09,0.06,4.64,0.09c-2.48,0.64-4.96,0.59-7.45,0.04
		C111.06,193.12,111.99,193.08,112.93,193.04z"/>
	<path class="st30" d="M81.69,168.33c0.05-2.28,0.23-4.54,0.73-6.77C82.56,163.86,82.41,166.13,81.69,168.33z"/>
	<path class="st30" d="M42,2.29c-1.31-1.03-2.82-0.45-4.25-0.49c-0.7-0.02-1.4,0.01-2.1,0.01c1.76-0.8,3.64-0.2,5.45-0.44
		C41.54,1.32,41.94,1.74,42,2.29z"/>
	<path class="st30" d="M63.68,155.59c-0.31,1.9-0.66,3.79-1.43,5.58C62.37,159.22,62.79,157.34,63.68,155.59z"/>
	<path class="st30" d="M61.89,162.68c-0.24,1.96-0.71,3.86-1.38,5.71C60.55,166.39,61.04,164.49,61.89,162.68z"/>
	<path class="st30" d="M154.08,1.48c-1.9-0.04-3.82,0.12-5.69-0.38C150.28,1.26,152.23,0.62,154.08,1.48z"/>
	<path class="st30" d="M129.58,41.46c0.05-0.99,0.11-1.99,0.16-2.98c0.04-0.89,0.54-1.07,1.3-0.9c-0.77,0.63-1.16,1.42-1.08,2.45
		C130,40.52,130.14,41.1,129.58,41.46z"/>
	<path class="st30" d="M35.4,1.81C33.63,2.29,31.8,2.14,30,2.18C31.75,1.36,33.6,1.95,35.4,1.81z"/>
	<path class="st30" d="M119.68,151.74c-0.38-1.42-0.76-2.84-1.15-4.27C119.75,148.67,119.53,150.25,119.68,151.74z"/>
	<path class="st30" d="M24.76,2.52c-1.78,0.47-3.61,0.33-5.42,0.37C21.1,2.07,22.95,2.66,24.76,2.52z"/>
	<path class="st30" d="M8.47,3.59C6.69,4.06,4.86,3.92,3.05,3.95C4.81,3.13,6.66,3.72,8.47,3.59z"/>
	<path class="st30" d="M71.43,72.91c-1.41,0.05-2.81,0.09-4.22,0.14c0.5-0.63,1.19-0.32,1.81-0.39c0.55-0.06,1.24,0.2,1.39-0.68
		c0.22,0.12,0.44,0.24,0.66,0.36C71.34,72.44,71.48,72.61,71.43,72.91z"/>
	<path class="st30" d="M148.41,1.11c-1.77-0.02-3.54-0.03-5.31-0.05C144.87,0.55,146.64,0.43,148.41,1.11z"/>
	<path class="st30" d="M164.38,2.16c-1.7-0.03-3.41,0.12-5.08-0.35C160.99,1.95,162.73,1.35,164.38,2.16z"/>
	<path class="st30" d="M169.7,2.51c-1.7-0.02-3.41,0.11-5.08-0.34C166.31,2.3,168.05,1.71,169.7,2.51z"/>
	<path class="st30" d="M175.37,2.88c-1.71-0.03-3.43,0.12-5.1-0.36C171.97,2.66,173.72,2.04,175.37,2.88z"/>
	<path class="st30" d="M19.12,2.88c-1.68,0.48-3.4,0.32-5.1,0.35C15.67,2.4,17.42,3.01,19.12,2.88z"/>
	<path class="st30" d="M121.09,157.4c-0.61-1.36-0.79-2.83-1.15-4.26C120.97,154.39,121.06,155.88,121.09,157.4z"/>
	<path class="st30" d="M127.47,183.29c-0.53-1.39-0.89-2.82-1.06-4.3C127.25,180.3,127.51,181.76,127.47,183.29z"/>
	<path class="st30" d="M126.96,55.96c0.11-0.2,0.21-0.41,0.32-0.61c0.49-1.06,0.07-2.47,1.23-3.28c0,0,0.09,0.08,0.09,0.08
		C128.46,53.59,129.04,55.35,126.96,55.96z"/>
	<path class="st30" d="M117.61,144.95c-0.18-1.04,0.77-1.62,1.01-2.49c-0.13,1.13-0.26,2.25-0.39,3.38
		C117.9,145.62,118.08,145.06,117.61,144.95z"/>
	<path class="st30" d="M13.8,3.24c-1.56,0.45-3.15,0.32-4.74,0.33C10.6,2.82,12.22,3.35,13.8,3.24z"/>
	<path class="st30" d="M119.95,136.07c0.07-1.33,0.31-2.63,0.75-3.89C120.89,133.56,120.69,134.87,119.95,136.07z"/>
	<path class="st30" d="M180.33,3.21c-1.58,0-3.18,0.13-4.73-0.33C177.17,2.99,178.79,2.47,180.33,3.21z"/>
	<path class="st30" d="M158.7,1.79c-1.56-0.01-3.12,0.15-4.65-0.34C155.6,1.59,157.2,1.01,158.7,1.79z"/>
	<path class="st30" d="M30.02,2.16c-1.52,0.48-3.09,0.33-4.64,0.34C26.88,1.72,28.47,2.3,30.02,2.16z"/>
	<path class="st30" d="M120.27,63.4c0.64-0.92,1.36-1.76,2.25-2.46C122.22,62.18,121.32,62.86,120.27,63.4z"/>
	<path class="st30" d="M121.79,126.52c0.04-1.27,0.28-2.5,0.7-3.7C122.52,124.1,122.76,125.43,121.79,126.52z"/>
	<path class="st30" d="M64.74,137.16c0.49,1.26,0.72,2.56,0.75,3.9C64.65,139.88,64.73,138.51,64.74,137.16z"/>
	<path class="st30" d="M114.22,70.14c0.65-0.93,1.38-1.78,2.25-2.51C116.22,68.91,115.3,69.59,114.22,70.14z"/>
	<path class="st30" d="M122.88,107.46c0.78,0.9,1.17,1.97,1.41,3.12C123.37,109.74,123.1,108.62,122.88,107.46z"/>
	<path class="st30" d="M123.77,59.5c0.76-0.84,1.52-1.67,2.27-2.51C125.79,58.28,124.87,58.97,123.77,59.5z"/>
	<path class="st30" d="M63.94,100.97c0.15-0.34,0.3-0.68,0.45-1.02c0.76,0.02,0.68,0.64,0.81,1.12c-0.06,0.88,0.37,1.91-0.76,2.47
		c0,0-0.09-0.08-0.09-0.08C64.25,102.62,64.75,101.69,63.94,100.97z"/>
	<path class="st30" d="M184.16,3.9c-0.95-0.84-2.24-0.02-3.24-0.66c0.97-0.01,1.95-0.04,2.92-0.02
		C184.3,3.23,184.74,3.36,184.16,3.9z"/>
	<path class="st30" d="M62.64,126.14c0.46,1.15,0.65,2.36,0.7,3.59C62.62,128.62,62.55,127.39,62.64,126.14z"/>
	<path class="st30" d="M62.95,77.98c-0.25,0.95-0.62,1.83-1.4,2.48C61.6,79.4,62.04,78.55,62.95,77.98z"/>
	<path class="st30" d="M63.72,131.79c0.21,0.63,0.42,1.27,0.63,1.9c0.01,0.57,0.02,1.13,0.02,1.7
		C63.72,134.27,63.59,133.06,63.72,131.79z"/>
	<path class="st30" d="M55.19,44.97c0.43,1.29,0.35,2.62,0.36,3.95C54.76,47.67,55.31,46.29,55.19,44.97z"/>
	<path class="st30" d="M119.27,139.62c0.05-1.24,0.27-2.44,0.72-3.59C120.14,137.31,120.06,138.53,119.27,139.62z"/>
	<path class="st30" d="M35.66,29.79c0.98-0.02,1.72,0.56,2.49,1.04C37.23,30.71,36.25,30.72,35.66,29.79z"/>
	<path class="st30" d="M56.92,88.97c-0.25,0.96-0.61,1.84-1.4,2.49C55.76,90.5,56.04,89.57,56.92,88.97z"/>
	<path class="st30" d="M121.79,160.28c-0.44-0.92-0.66-1.89-0.72-2.91C122.09,158.15,121.78,159.26,121.79,160.28z"/>
	<path class="st30" d="M3.07,3.93C2.21,4.55,1.02,3.78,0.21,4.62c-0.37-0.39-0.22-0.66,0.24-0.68C1.32,3.89,2.2,3.93,3.07,3.93z"/>
	<path class="st30" d="M126.42,179c-0.43-0.9-0.66-1.86-0.71-2.86C126.66,176.92,126.4,178,126.42,179z"/>
	<path class="st30" d="M60.53,168.36c-0.06,0.98-0.21,1.93-0.77,2.77C59.48,170.06,59.93,169.19,60.53,168.36z"/>
	<path class="st30" d="M65.09,65.96c0.81,0.52,1.49,1.16,1.8,2.1C66.11,67.51,65.29,67,65.09,65.96z"/>
	<path class="st30" d="M78.25,2.52c-1.03,0.41-2.1,0.7-3.22,0.71C75.97,2.39,77.11,2.47,78.25,2.52z"/>
	<path class="st30" d="M104.49,186.26c0.43,1.09,0.35,2.23,0.36,3.36C104.06,188.58,104.6,187.38,104.49,186.26z"/>
	<path class="st30" d="M65.8,142.5c0.66,0.86,1.12,1.74,0.36,2.78C66.33,144.32,65.82,143.44,65.8,142.5z"/>
	<path class="st30" d="M106.22,190.68c0.9,0.18,1.58,0.68,2.09,1.42C107.4,191.94,106.67,191.52,106.22,190.68z"/>
	<path class="st30" d="M75.33,192.43c0.71-0.5,1.42-1.01,2.14-1.51C77.11,191.94,76.3,192.3,75.33,192.43z"/>
	<path class="st30" d="M123.2,165.98c-0.49-0.91-0.57-1.93-0.81-2.9C123.34,163.85,123.27,164.92,123.2,165.98z"/>
	<path class="st30" d="M55.55,49.1c0.43,1.09,0.33,2.23,0.33,3.37C55.16,51.4,55.65,50.22,55.55,49.1z"/>
	<path class="st30" d="M40.94,121.26c0.11,0.22,0.22,0.44,0.33,0.67c-1.06-0.37-1.83-0.88-0.99-2.13
		C40.32,120.36,40.17,121.02,40.94,121.26z"/>
	<path class="st30" d="M64.42,152.39c0.02,1.07-0.27,2.06-0.7,3.02C63.63,154.33,63.63,153.27,64.42,152.39z"/>
	<path class="st30" d="M115.02,5.08c-0.83-0.22-1.58-0.58-2.24-1.13C113.64,4.11,114.63,4,115.02,5.08z"/>
	<path class="st30" d="M63.03,102.6c0.21-0.3,0.42-0.6,0.64-0.9c-0.15,0.93-0.04,1.98-1.15,2.47c0.14-0.46,0.29-0.92,0.43-1.37
		c-0.11-0.09-0.13-0.15-0.07-0.18C62.9,102.6,62.95,102.6,63.03,102.6z"/>
	<path class="st30" d="M104.13,182.84c0.43,1.05,0.35,2.15,0.35,3.24C103.72,185.07,104.23,183.92,104.13,182.84z"/>
	<path class="st30" d="M46.3,34.73c0.76,0.22,1.52,0.45,2.07,1.08C47.44,35.9,46.7,35.64,46.3,34.73z"/>
	<path class="st30" d="M44.83,33.81c0.49,0.31,0.99,0.61,1.48,0.92c-0.99,0.03-1.78-0.42-2.49-1.04
		C44.16,33.73,44.49,33.77,44.83,33.81z"/>
	<path class="st30" d="M103.38,1.78c-0.98,0.01-1.97,0.21-2.89-0.31C101.46,1.54,102.48,1.08,103.38,1.78z"/>
	<path class="st30" d="M125.32,174.54c-0.4-0.84-0.62-1.72-0.66-2.65C125.52,172.62,125.38,173.59,125.32,174.54z"/>
	<path class="st30" d="M13.32,14.9c0.81,0.2,1.41,0.67,1.8,1.41C14.21,16.24,13.77,15.56,13.32,14.9z"/>
	<path class="st30" d="M62.92,114.8c0.22-0.92-0.32-1.94,0.39-2.79c0,0,0.06,0.04,0.06,0.04c0.52,0.6,0.42,1.3,0.36,2
		c-0.1,0.39-0.2,0.79-0.72,0.83L62.92,114.8z"/>
	<path class="st30" d="M136.36,105.97c-0.39-0.7-0.78-1.39-1.16-2.09C136.17,104.25,136.32,105.09,136.36,105.97z"/>
	<path class="st30" d="M48.76,103.85c-0.06,0.79-0.53,1.36-0.99,1.94C47.59,104.89,47.97,104.27,48.76,103.85z"/>
	<path class="st30" d="M55.92,52.8c0.12,0.36,0.24,0.72,0.36,1.09c-0.01,0.47-0.03,0.94-0.04,1.42
		C55.63,54.53,55.82,53.66,55.92,52.8z"/>
	<path class="st30" d="M57.63,180.05c-0.01,0.93-0.26,1.8-0.65,2.63C56.91,181.73,56.79,180.77,57.63,180.05z"/>
	<path class="st30" d="M65.96,7.15c-0.58,0.44-1.13,0.96-1.92,0.97C64.46,7.36,65.06,6.96,65.96,7.15z"/>
	<path class="st30" d="M117.16,6.22c-0.76-0.33-1.55-0.58-2.17-1.17C115.9,5.1,116.7,5.35,117.16,6.22z"/>
	<path class="st30" d="M22.9,22.36c0.83,0.15,1.32,0.76,1.84,1.34C23.76,23.75,23.38,22.99,22.9,22.36z"/>
	<path class="st30" d="M65.79,147.09c-0.06,0.87-0.15,1.73-0.7,2.45C65.08,148.65,65,147.74,65.79,147.09z"/>
	<path class="st30" d="M82.59,1.82C81.77,2.22,80.9,2.33,80,2.2C80.77,1.4,81.72,1.91,82.59,1.82z"/>
	<path class="st30" d="M100.53,1.5c-0.88-0.02-1.76,0.01-2.58-0.39C98.81,1.21,99.77,0.68,100.53,1.5z"/>
	<path class="st30" d="M44.5,111.65c-0.08,0.77-0.5,1.36-0.99,1.92C43.5,112.76,43.78,112.09,44.5,111.65z"/>
	<path class="st30" d="M62.75,8.92c-0.56,0.47-1.13,0.92-1.91,0.97C61.29,9.2,61.94,8.91,62.75,8.92z"/>
	<path class="st30" d="M78.45,190.28c0.63-0.43,0.9-1.09,1.14-1.78C79.64,189.37,79.77,190.29,78.45,190.28z"/>
	<path class="st30" d="M132.82,123.74c0.7-0.07,1.3,0.14,1.79,0.66C133.91,124.44,133.31,124.25,132.82,123.74z"/>
	<path class="st30" d="M63.32,63.9c0.52,0.31,1,0.65,1.08,1.32C63.85,64.93,63.39,64.57,63.32,63.9z"/>
	<path class="st30" d="M60.13,60.32c0.58,0.29,1.01,0.69,1.11,1.36C60.65,61.4,60.19,61.02,60.13,60.32z"/>
	<path class="st30" d="M53.27,122.94c0.04-0.1,0.08-0.2,0.13-0.29c0.73,0.12,0.97-0.5,1.36-0.9
		C54.83,122.85,54.16,123.04,53.27,122.94z"/>
	<path class="st30" d="M117.07,66.95c0.31-0.51,0.65-0.99,1.2-1.27C118.16,66.37,117.75,66.79,117.07,66.95z"/>
	<path class="st30" d="M136.47,6.08c-0.44,0.44-0.83,0.95-1.53,0.99C135.3,6.49,135.69,5.99,136.47,6.08z"/>
	<path class="st30" d="M41.35,117.31c0.04,0.59-0.33,1.01-0.63,1.46C40.27,118,40.82,117.66,41.35,117.31z"/>
	<path class="st30" d="M134.04,7.86c-0.46,0.44-0.85,0.99-1.58,1.01C132.81,8.25,133.23,7.75,134.04,7.86z"/>
	<path class="st30" d="M126.62,115.25c0.06,0.34,0.13,0.67,0.19,1.01c-0.56-0.42-0.74-1.01-0.73-1.68
		C126.25,114.8,126.44,115.02,126.62,115.25z"/>
	<path class="st30" d="M24.71,23.67c0.54,0.27,1.11,0.51,1.34,1.15C25.34,24.75,24.92,24.33,24.71,23.67z"/>
	<path class="st30" d="M58.57,113.02c0.21-0.61,0.37-1.25,0.84-1.74C59.4,111.99,59.35,112.68,58.57,113.02z"/>
	<path class="st30" d="M6.94,9.93c0.72,0.02,1.09,0.54,1.48,1.02C7.65,11.02,7.27,10.51,6.94,9.93z"/>
	<path class="st30" d="M60.3,109.12c0.24-0.61,0.38-1.27,0.86-1.77C61.18,108.09,61.14,108.8,60.3,109.12z"/>
	<path class="st30" d="M142.02,32.26c0.55-0.37,1.08-0.78,1.79-0.74C143.37,32.13,142.73,32.28,142.02,32.26z"/>
	<path class="st30" d="M8.39,10.93c0.55,0.26,1.12,0.49,1.35,1.13C9.03,11.99,8.62,11.57,8.39,10.93z"/>
	<path class="st30" d="M121.47,104.2c0.13,0.12,0.27,0.24,0.4,0.36c0.12,0.47,0.23,0.95,0.35,1.42
		C121.6,105.55,121.45,104.91,121.47,104.2z"/>
	<path class="st30" d="M10.13,12.42c0.67,0.09,1.13,0.45,1.39,1.06C10.82,13.44,10.44,12.97,10.13,12.42z"/>
	<path class="st30" d="M170.67,14.51c0.49-0.39,0.97-0.77,1.46-1.16C171.92,14.08,171.48,14.52,170.67,14.51z"/>
	<path class="st30" d="M18.29,18.79c0.69,0.07,1.13,0.45,1.4,1.07C18.97,19.82,18.59,19.35,18.29,18.79z"/>
	<path class="st30" d="M163.91,19.82c0.49-0.39,0.98-0.78,1.48-1.18C165.19,19.4,164.74,19.84,163.91,19.82z"/>
	<path class="st30" d="M50.56,36.89c0.63-0.08,1.12,0.13,1.44,0.69C51.39,37.61,50.84,37.53,50.56,36.89z"/>
	<path class="st30" d="M80.03,2.18c-0.56,0.33-1.18,0.37-1.81,0.35C78.72,1.87,79.41,2.21,80.03,2.18z"/>
	<path class="st30" d="M38.15,30.83c0.51,0.11,1.04,0.2,1.34,0.72C38.89,31.59,38.39,31.46,38.15,30.83z"/>
	<path class="st30" d="M118.83,141.37c0.21-0.58,0.02-1.26,0.46-1.79C119.24,140.21,119.68,140.96,118.83,141.37z"/>
	<path class="st30" d="M64.37,135.41c0.5,0.51,0.35,1.15,0.36,1.76C64.15,136.67,64.46,136,64.37,135.41z"/>
	<path class="st30" d="M120.76,131.85c-0.01-0.51-0.06-1.03,0.3-1.46C121.44,130.97,121.29,131.45,120.76,131.85z"/>
	<path class="st30" d="M63.36,129.91c0.39,0.59,0.38,1.26,0.38,1.92C63.01,131.31,63.42,130.56,63.36,129.91z"/>
	<path class="st30" d="M118.94,64.85c0.36-0.38,0.71-0.76,1.07-1.14C120.05,64.46,119.69,64.84,118.94,64.85z"/>
	<path class="st30" d="M121.05,130.41c0-0.66-0.02-1.33,0.38-1.92C121.37,129.15,121.77,129.89,121.05,130.41z"/>
	<path class="st30" d="M75.04,3.21c-0.55,0.37-1.16,0.43-1.8,0.36C73.74,2.95,74.43,3.28,75.04,3.21z"/>
	<path class="st30" d="M121.45,128.31c-0.01-0.63-0.03-1.26,0.35-1.81C121.75,127.11,122.07,127.8,121.45,128.31z"/>
	<path class="st30" d="M62.29,124.35c0.42,0.55,0.34,1.19,0.36,1.81C61.99,125.67,62.33,124.97,62.29,124.35z"/>
	<path class="st30" d="M43.11,123.74c0.54,0.14,0.88,0.48,1.03,1.02C43.49,124.72,43.15,124.38,43.11,123.74z"/>
	<path class="st30" d="M56.25,118.38c0.06-0.57,0.29-1.06,0.66-1.5C56.98,117.51,56.91,118.07,56.25,118.38z"/>
	<path class="st30" d="M122.13,8.7c-0.51-0.28-1.03-0.56-1.54-0.84C121.26,7.85,121.87,7.95,122.13,8.7z"/>
	<path class="st30" d="M122.51,60.95c0.24-0.48,0.58-0.88,1.04-1.17C123.6,60.53,123.26,60.93,122.51,60.95z"/>
	<path class="st30" d="M119.69,75.52c-0.27-0.47-0.54-0.94-0.81-1.4C119.66,74.29,119.72,74.88,119.69,75.52z"/>
	<path class="st30" d="M59.41,111.29c0.06-0.58,0.3-1.09,0.68-1.53C60.17,110.4,60.12,110.99,59.41,111.29z"/>
	<path class="st30" d="M88.02,1.01c-0.55,0.03-1.11,0.06-1.66,0.09c0.48-0.62,1.17-0.28,1.76-0.4c0.04,0.07,0.08,0.14,0.12,0.21
		C88.17,0.94,88.09,0.97,88.02,1.01z"/>
	<path class="st30" d="M61.15,107.37c0.07-0.6,0.31-1.11,0.7-1.56C61.93,106.47,61.93,107.1,61.15,107.37z"/>
	<path class="st30" d="M28.58,26.3c0.53,0.04,0.99,0.19,1.32,0.64C29.33,26.98,28.85,26.85,28.58,26.3z"/>
	<path class="st30" d="M57.29,57.12c0.52,0.15,0.78,0.54,0.96,1.01C57.64,58.07,57.33,57.73,57.29,57.12z"/>
	<path class="st30" d="M128.2,11.71c-0.49-0.08-0.89-0.32-1.23-0.66C127.52,11.01,128.11,10.89,128.2,11.71z"/>
	<path class="st30" d="M50.52,100.66c0,0.56-0.27,0.97-0.68,1.32C49.81,101.41,49.95,100.92,50.52,100.66z"/>
	<path class="st30" d="M127.72,186.39c0.29-0.57,0.13-1.13,0.01-1.7C128.44,185.26,128.45,185.82,127.72,186.39z"/>
	<path class="st30" d="M133.87,101.39c-0.27-0.47-0.53-0.94-0.8-1.41C133.84,100.17,133.9,100.75,133.87,101.39z"/>
	<path class="st30" d="M53.03,96.05c0.01,0.57-0.23,1.01-0.71,1.32C52.29,96.79,52.43,96.3,53.03,96.05z"/>
	<path class="st30" d="M88.12,0.69c0.49-0.55,1.17-0.23,1.75-0.37c0,0,0.06,0.07,0.06,0.07c-0.4,1.11-1.11,0.62-1.78,0.35
		L88.12,0.69z"/>
	<path class="st30" d="M131.37,96.82c-0.27-0.48-0.55-0.96-0.82-1.44C131.38,95.55,131.42,96.16,131.37,96.82z"/>
	<path class="st30" d="M59.05,85.07c0.01,0.57-0.24,1-0.7,1.31C58.32,85.8,58.46,85.32,59.05,85.07z"/>
	<path class="st30" d="M128.21,91.08c-0.27-0.46-0.53-0.92-0.8-1.38C128.15,89.89,128.23,90.46,128.21,91.08z"/>
	<path class="st30" d="M140.26,113.07c-0.27-0.46-0.53-0.93-0.8-1.39C140.21,111.86,140.28,112.44,140.26,113.07z"/>
	<path class="st34" d="M137.11,27.68c-1.41-1.16-0.42-2.93-1.1-4.28c1.2-0.18,1.44-1.27,1.89-2.09c1.86-3.44,3.66-6.91,5.49-10.37
		c0.07-0.14,0.28-0.2,0.42-0.29c-0.01,0.75,0.59,1.11,1.03,1.56c1.77,1.79,3.57,3.56,5.34,5.36c0.44,0.45,1.05,0.79,1.05,1.55
		c-0.69,0.51-1.65,0.62-2.14,1.43c-3.26,2.7-7.07,4.56-10.54,6.95C138.15,27.78,137.65,28.07,137.11,27.68z"/>
	<path class="st34" d="M48.04,28.74c-3.87-2.01-7.4-4.57-11.16-6.77c-0.41-0.24-0.82-0.46-1.23-0.69c-0.83-0.59-1.65-1.18-2.48-1.77
		c2.09-2.15,4.2-4.3,6.28-6.46c0.48-0.5,1.16-0.87,1.17-1.69c2.67,3.54,4.38,7.64,6.61,11.44c0.35,0.59,0.46,1.35,1.19,1.68
		C48.23,25.88,48.84,27.37,48.04,28.74z"/>
	<path class="st35" d="M70.75,57.43c-0.04-0.04-0.12-0.09-0.12-0.13c0-4.87-3.45-8.17-5.55-12.07c-2.11-3.92-4.47-7.71-6.72-11.56
		c-0.49-2.5,0.94-4.43,2.2-6.24c0.88-1.27,2.51-0.38,3.82-0.25c2.1,0.57,4.15,0.48,6.1-0.58c2.17-0.73,2.42-2.66,2.79-4.51
		c0.11-0.55-0.18-1.19,0.42-1.62c0.7,0.15,0.83,0.79,1.04,1.31c1.22,2.91,2.38,5.85,3.57,8.78c0.27,0.65,0.4,1.35,0.34,2.06
		c-1.19,4.24-2.84,8.33-4.23,12.51c-1.07,3.23-2.37,6.38-3.14,9.7C71.22,55.73,71.47,56.68,70.75,57.43z"/>
	<path class="st36" d="M70.75,57.43c0.01-0.95,0.01-1.89,0.02-2.84c0.77-0.65,1.68-0.5,2.57-0.42c0.93,0.22,1.67,0.82,2.51,1.23
		c1.91,1.47,3.79,3.03,6.45,2.79c1.86,0.22,3.74,0.23,5.57,0.71c1.07,1.03,0.06,1.56-0.57,2.06c-3.9,3.14-7.8,6.27-11.74,9.36
		c-1.2,0.94-2.5,1.77-3.32,3.12c-0.27,0.11-0.51,0.1-0.71-0.14c-0.03-0.13-0.06-0.26-0.09-0.39c-0.12-0.19-0.24-0.38-0.37-0.56
		c0.67-0.55,0.43-1.32,0.37-1.97C70.99,66.07,70.99,61.74,70.75,57.43z"/>
	<path class="st37" d="M64.38,27.65c-0.51-0.1-1.02-0.22-1.53-0.31c-1.36-0.22-2.36,0.04-2.77,1.61c-0.43,1.62-1.67,2.96-1.73,4.73
		c-0.12,0-0.23,0-0.35,0c-0.12-1.14-0.44-2.22-1.07-3.19c0-0.12,0-0.24,0-0.35c-0.76-0.78-1.33-1.67-1.51-2.77
		c-1-3.38-2.4-6.63-3.45-10c-0.66-2.24,1.28-2.62,2.51-3.51c1.86,0.48,3.29-0.79,4.87-1.32c3.15-1.05,6.2-2.43,9.29-3.67
		c0.08,0.09,0.2,0.2,0.17,0.29c-0.93,3.04-1.82,6.11-3.93,8.61c-2.26,0.4-4.55,0.71-6.7,1.56c-2.21,0.87-2.74,1.53-2.37,2.9
		c0.65,2.45,2.47,4.15,4.25,4.01c0.73-0.06,0.91-0.65,1.19-1.16c0.32-0.59,0.4-1.42,1.35-1.42c0.36,0.28,0.47,0.69,0.61,1.09
		C63.17,25.91,64.49,26.49,64.38,27.65z"/>
	<path class="st38" d="M76.08,171.19c-2,1.26-4.11,1.38-6.41,0.9c-0.76-0.16-1.81,0.2-2.63,0.4c-1.87,0.45-1.72-0.48-1.61-1.65
		c-0.52-0.57-0.35-1.21-0.18-1.83c1.98-7.02,3.9-14.06,5.86-21.09c0.13-0.45,0.27-0.9,0.62-1.25c2.56-0.03,4.93,0.47,6.82,2.37
		c0.11,2.84-0.45,5.63-0.64,8.45c-0.25,3.64-0.58,7.29-0.97,10.92C76.85,169.38,76.88,170.41,76.08,171.19z"/>
	<path class="st39" d="M71.85,146.75c-1.61,5.93-3.26,11.85-4.82,17.79c-0.55,2.09-1.43,4.1-1.59,6.28
		c-1.35,3.05-1.86,6.34-2.82,9.51c-0.73,2.38-1.43,4.76-2.15,7.15c0.74-4.27,1.43-8.54,2.22-12.8c1.6-8.69,3.26-17.37,4.89-26.05
		c0.12-0.63,0.24-1.26,0.35-1.9C69.24,145.98,70.54,145.9,71.85,146.75z"/>
	<path class="st40" d="M76.08,171.19c0.71-7.45,1.43-14.89,2.14-22.34c1.53-0.24,2.59,0.35,3.18,1.79c-1,3.79-1.4,7.7-2.09,11.55
		c-0.99,5.46-1.8,10.96-2.69,16.44c-0.53,3.23-1.07,6.46-1.59,9.69c-0.06,0.35-0.03,0.71-0.36,0.95c0.31-4.99,0.71-9.96,1.34-14.92
		C76.14,173.3,76.06,172.24,76.08,171.19z"/>
	<path class="st25" d="M137.11,27.68c3.02-1.41,5.64-3.49,8.51-5.15c1.16-0.67,2.32-1.32,3.48-1.99c-1.19,1.66-2.78,2.92-4.25,4.3
		c-1.88,1.76-4.03,3.24-5.65,5.29c-0.58-0.97-1.5-1.45-2.52-1.79C136.82,28.12,136.96,27.9,137.11,27.68z"/>
	<path class="st41" d="M119.34,172.25c-0.01,1.15-0.11,2.78-1.16,2.89c-1.6,0.17-3.4,0.91-4.92-0.04c-1.02-0.64-1.75-0.93-2.86-0.24
		c-0.87,0.54-1.6,0.21-1.7-0.95c-0.04-0.46,0.1-0.96-0.36-1.3c-1.14-1.27-0.77-2.88-0.98-4.36c-0.43-3.08-0.5-6.19-0.91-9.27
		c-0.09-0.7-0.09-1.41,0.21-2.07c0.92-0.65,0.96,0.23,1.02,0.68c0.24,1.62,1.22,1.76,2.58,1.5c1.73-0.33,3.44-0.75,5.21-0.89
		c0.64,0.25,0.77,0.85,0.93,1.4c1.09,3.58,2,7.22,3.05,10.81C119.64,171.02,119.84,171.67,119.34,172.25z"/>
	<path class="st39" d="M119.34,172.25c-1.12-4.66-2.33-9.29-3.9-13.82c-0.53-0.26-0.74-0.73-0.82-1.28
		c-0.26-1.88-0.94-3.65-1.38-5.48c-0.42-1.74-0.85-3.49-2.07-4.9c1.65-0.89,3.31-0.86,4.98-0.04c1.09,2.61,1.18,5.44,1.73,8.17
		c1.32,6.58,2.56,13.18,3.72,19.8c0.69,3.91,1.75,7.75,1.99,11.73c-1.6-4.39-2.57-8.95-3.89-13.42
		C119.62,172.74,119.46,172.5,119.34,172.25z"/>
	<path class="st40" d="M106.93,156.66c0.25,5.34,0.86,10.64,1.42,15.95c0.32,5.1,0.74,10.19,1.35,15.27c0.08,0.69,0.04,1.4,0.06,2.1
		c-0.93-3.08-1.18-6.28-1.74-9.43c-1.33-7.54-2.56-15.09-3.81-22.64c-0.42-2.54-0.79-5.08-1.18-7.62c0.59-0.95,1.61-1.29,2.52-1.79
		c0.4-0.21,0.89-0.39,1.17,0.23c-0.02,2.1,0.39,4.17,0.44,6.27C107.19,155.56,107.38,156.15,106.93,156.66z"/>
	<path class="st42" d="M117.57,88.25c-0.21-0.78-1-1.27-1.06-2.13c-0.99-1.38-1.07-3.05-1.48-4.62c-0.49-1.86-1.14-3.68-1.41-5.59
		c-0.01-0.18,0-0.36,0.02-0.54c0.09-0.54,0.39-0.96,0.78-1.33c0.19-0.17,0.41-0.29,0.68-0.3c1.01-0.07,1.6,0.39,1.77,1.38
		c1.35,3.07,2.7,6.14,4.06,9.2c3.77,8.49,7.54,16.98,11.34,25.46c1.04,2.31,2.18,4.58,3.23,6.88c0.34,0.75,0.95,1.47,0.52,2.4
		c-1.89-3.07-3.42-6.36-5.67-9.21c-1.33-3.01-3.15-5.75-4.85-8.54C122.83,96.98,120.47,92.45,117.57,88.25z"/>
	<path class="st43" d="M51.99,112.35c-1.31,2.24-2.62,4.48-3.93,6.72c-0.56-0.81,0.09-1.45,0.37-2.08
		c5.55-12.34,11.15-24.66,16.67-37.02c0.54-1.21,1.38-2.35,1.4-3.77c0.33-0.93,0.62-1.89,1.78-2.13c0.09,0,0.17,0,0.26,0.01
		c0.53,0.13,0.94,0.44,1.31,0.83c0.82,0.96,0.72,2.06,0.48,3.17c-0.45,2.06-1.11,4.07-1.62,6.12c-0.08,0.35-0.22,0.68-0.33,1.01
		c-0.3,0.71-0.47,1.5-1.18,1.96c-2.2,2.7-3.63,5.89-5.43,8.83C58.45,101.42,55.25,106.9,51.99,112.35z"/>
	<path class="st44" d="M67.57,140.71c0.76-2.63,1.01-5.35,1.4-8.03c0.27-1.83,0.51-3.66,1.08-5.43c0.65,0.24,0.8,0.83,0.92,1.4
		c0.98,4.6,2.28,9.12,3.33,13.7c0.13,0.57,0.24,1.15,0.14,1.75c-0.07,0.2-0.2,0.35-0.38,0.44c-2.26,0.44-4.5,1.33-6.85,0.43
		C66.99,143.51,67.66,142.14,67.57,140.71z"/>
	<path class="st45" d="M67.22,144.96c2.36-0.23,4.73-0.47,7.09-0.7c0.29-0.04,0.64-0.1,0.86,0.08c2.14,1.75,4.59,3.04,6.72,4.8
		c0.23,0.19,0.36,0.46,0.22,0.78c-0.01,0.46-0.25,0.7-0.71,0.71c-0.92-0.84-1.95-1.5-3.18-1.79c-2.02-1.02-4.2-1.55-6.38-2.1
		c-1.31,0-2.61-0.01-3.92-0.01C67.69,146.14,67.45,145.55,67.22,144.96z"/>
	<path class="st46" d="M72.17,73.35c-0.01-1.79,1.67-2.18,2.68-3.01c4.12-3.4,8.38-6.64,12.58-9.95c0.38-0.3,0.71-0.64,0.68-1.17
		c2.05-0.98,4.29-1.18,6.48-1.51c0.53-0.08,1.23-0.06,1.34,0.77c-0.1,1.01,0.79,1.28,1.36,1.74c4.63,3.78,9.28,7.54,13.91,11.32
		c0.19,0.16,0.22,0.52,0.33,0.78c-0.34,0.21-0.67,0.42-1.01,0.63c-0.41,0.32-0.83,0.11-1.25,0.02c-1.4-0.34-2.85-0.27-4.23-0.09
		c-4.77,0.61-9.56,0.35-14.34,0.31c-5.32-0.05-10.62,0.44-15.93,0.33c-0.6,0-1.2-0.03-1.8,0.11C72.67,73.64,72.39,73.58,72.17,73.35
		z"/>
	<path class="st47" d="M114.74,53.88c-0.01,0.12-0.02,0.24-0.03,0.36c-1.88,0.12-3.75,0.52-5.65,0.35
		c-1.04-1.08-1.68-0.31-2.32,0.49c-1.56-0.1-3-0.74-4.55-0.89c-1.42-0.35-2.87-0.12-4.3-0.18c-0.29,0.02-0.58,0.02-0.86,0.01
		c-0.67-0.04-1.33-0.02-2-0.04c-0.29-0.01-0.57-0.05-0.84-0.14c-0.17-0.07-0.32-0.17-0.44-0.32c0.14-1.53,1.18-2.66,1.85-3.93
		c0.98-1.87,1.83-3.82,2.96-5.61c0.63-1,0.26-1.29-0.81-1.37c-1.22-0.1-2.59,0.54-3.65-0.59c0.79-0.99,1.97-0.85,3.02-1.01
		c1.44-0.22,2.89-0.33,4.25-0.89c0.68-0.21,1.39-0.16,2.09-0.18c2.22-0.05,2.43-0.36,1.57-2.34c-0.4-0.91-0.8-1.82-1.12-2.76
		c-0.11-0.46-0.01-0.89,0.17-1.32c0.4-0.68,0.54-1.58,1.48-1.82c0.19,0.01,0.36,0.07,0.5,0.18c0.47,0.48,0.69,1.09,0.93,1.69
		c2.43,6.08,4.85,12.16,7.3,18.24C114.53,52.49,114.79,53.15,114.74,53.88z"/>
	<path class="st12" d="M97,53.53c0.24,0,0.47,0,0.71,0c1.51,0.5,3.11-0.14,4.62,0.34c1.63-0.04,3.13,0.49,4.63,1.06
		c0.97,0.29,1.03,0.95,0.72,1.76c-0.46,0.83-1.19,1.3-2.1,1.43c-1.96,0.27-3.96,0.36-5.89,0.78c-1.36,0.3-2.52-0.07-3.74-0.42
		c-1.84-1.03-3.48,0.34-5.23,0.46c-0.85,0.06-1.72,0.26-2.59,0.28c-2.03-0.08-4.05-0.22-6.03-0.71c-0.07-0.3-0.71-0.44-0.25-0.9
		c3.3-1.55,6.72-2.78,10.12-4.07c0.74-0.28,1.47,0.16,2.21-0.01c0.24,0,0.47,0,0.71-0.01C95.58,53.81,96.29,53.81,97,53.53z"/>
	<path class="st48" d="M104.81,57.08c-0.17-0.61-0.34-1.22-0.51-1.83c0.11-0.47-0.45-1.3,0.57-1.27c0.73,0.02,1.77-0.17,1.56,1.18
		c-0.72,0.78-0.34,1.95-0.96,2.78C104.83,57.94,105.18,57.24,104.81,57.08z"/>
	<path class="st49" d="M82.11,149.92c-2.4-2.16-5.3-3.64-7.8-5.66c0,0,0-0.01,0-0.01c0.86-0.77,1.95-0.76,2.99-0.85
		c4.28-0.35,8.54-0.88,12.8-1.33c2.19-0.23,4.34,0,6.51,0.23c3.21,0.35,6.45,0.5,9.63,1.17c0.73,0.25,1.48,0.35,2.26,0.32
		c0.46,0.01,0.92,0.03,1.36,0.2c0.17,0.07,0.29,0.2,0.36,0.37c-1.23,1.89-3.29,2.78-5.05,3.99c-0.87,0.6-1.58,1.63-2.83,1.58
		c-1.52,0.12-3.07-0.26-4.57,0.22c-3.68-0.29-7.37-0.28-11.05,0C85.2,149.45,83.63,150.11,82.11,149.92z"/>
	<path class="st50" d="M102.32,149.92c2.6-1.89,5.2-3.78,7.8-5.66c2.34-0.64,4.59-0.51,6.74,0.7c0.15,0.74-0.39,1.21-0.71,1.77
		c-1.65,0.18-3.36-0.39-4.97,0.36c-1.35,1.06-2.83,1.73-4.6,1.42c-1.18,0.59-2.36,1.18-3.54,1.77
		C102.74,150.27,102.47,150.21,102.32,149.92z"/>
	<path class="st44" d="M116.86,144.96c-2.25-0.23-4.49-0.47-6.74-0.7c0,0,0-0.01,0-0.01c-0.34-0.78,0.05-1.51,0.21-2.24
		c1-4.49,2.21-8.94,3.21-13.43c0.13-0.57,0.27-1.15,0.66-1.63c0.16-0.16,0.33-0.18,0.52-0.07c0.64,4.34,1.28,8.68,1.91,13.02
		c0.24,1.68,0.66,3.34,0.57,5.06C117.09,144.96,116.98,144.96,116.86,144.96z"/>
	<path class="st51" d="M114.74,53.88c-2.5-5.36-4.44-10.95-6.72-16.41c-0.77-1.84-1.44-3.71-2.16-5.57c-0.7-0.85-0.22-1.7,0.07-2.51
		c2.16-6.11,4.41-12.19,6.62-18.29c0.34-0.94,0.79-1.85,0.62-2.9c0.04-0.28,0.1-0.54,0.49-0.41c0.23,0,0.47,0.01,0.7,0.01
		c2.12,2.52,3.4,5.53,5,8.36c0.29,0.51,0.43,1.1,0.01,1.65c-0.72,0.45-1.4,0.05-2.09-0.09c-0.84-0.34-1.66,0.02-2.48,0.07
		c-1.9-0.22-3,0.9-3.67,2.42c-0.71,1.62-0.35,3.24,0.63,4.66c0.49,0.71,1.13,1.35,1.99,1.68c0.31,0.14,0.61,0.3,0.92,0.44
		c1.5,0.62,3.03,0.68,4.58,0.28c1.76-0.18,3.41-0.69,4.96-1.54c1.91,1.61,2.94,3.72,3.45,6.12c-0.16,1.85-1.36,3.23-2.24,4.74
		c-2.9,4.99-5.67,10.05-8.65,14.99c-0.35,0.59-0.57,1.32-1.33,1.57C115.21,53.41,114.97,53.64,114.74,53.88z"/>
	<path class="st52" d="M115.44,53.17c3.42-5.96,6.84-11.91,10.25-17.87c0.64-1.11,1.21-2.26,1.81-3.4c0.12-0.16,0.23-0.16,0.35,0
		c0,0.83,0,1.65,0,2.48c0,4.89-0.01,9.78,0.02,14.67c0,0.58-0.34,1.36,0.59,1.63c0.02,0.46,0.03,0.92,0.05,1.37
		c-0.56,1.04,0.18,2.56-1.23,3.28c-0.28-0.08-0.6-0.09-0.84-0.24c-1.29-0.82-1.81-0.23-1.92,1.4c-1.95-3.08-4.89-1.76-7.35-2.26
		C116.43,54.1,115.38,54.57,115.44,53.17z"/>
	<path class="st53" d="M67.21,87.17c0.24-0.7,0.49-1.39,0.73-2.09c0.92,0.1,0.68,0.84,0.77,1.4c-0.39,2.72-1.39,5.3-1.89,8
		c-0.1,0.53-0.22,1.2-1.01,1.23c-1.24,2.17-2.48,4.34-2.79,6.88c0.05,0.09,0.02,0.16-0.08,0.2c-0.84-1.23-0.09-2.44,0.25-3.51
		c1.09-3.51,2.42-6.94,3.63-10.41C67.02,88.33,67.08,87.74,67.21,87.17z"/>
	<path class="st54" d="M114.73,126.88c-0.12,0-0.23,0-0.35,0c-0.16-0.14-0.28-0.31-0.36-0.51c-1.29-8.26-2.16-16.57-3.34-24.84
		c-0.18-1.28-0.29-2.57-0.57-3.84c-0.07-0.31-0.1-0.62-0.1-0.93c-0.02-0.31-0.01-0.63,0.03-0.94c0.57-4.73,0.83-9.5,1.33-14.24
		c0.11-1.06,0.23-2.11,0.51-3.13c0.79-1.23,1.13-0.26,1.36,0.35c0.56,1.49,0.72,3.09,0.96,4.65c0.36,2.33,0.96,4.65,1.21,6.95
		c0.27,2.5,1.32,4.84,1.23,7.37c-0.02,0.45,0.25,0.77,0.39,1.15c0.46,1.19,1.06,2.34,0.45,3.7c-0.35,0.79,0.03,1.49,0.79,1.93
		c-0.31,1.93-0.63,3.85-0.93,5.78c-0.1,0.67-0.48,1.32-0.14,2.02c-0.12,3.28-0.6,6.49-1.77,9.57
		C114.86,123.53,114.72,125.19,114.73,126.88z"/>
	<path class="st55" d="M115.44,121.92c0.36-3.23,0.87-6.44,1.77-9.57c0.36,0.32,0.9,0.21,0.76,1.2c-0.16,1.2-0.19,2.96,1.88,3.2
		c0.61,0.07,0.32,0.77,0.57,1.17c0.78-0.63,0.19-1.78,0.97-2.36c0.28,1.37,0.52,2.74,0.48,4.15c-0.15,1.53-0.42,3.06-1.59,4.14
		c-0.61,0.56-1.44,1.69-2.12-0.17C117.76,122.57,116.44,122.37,115.44,121.92z"/>
	<path class="st56" d="M114.37,126.53c0,0.12,0,0.24,0.01,0.36c-1.28,5.82-2.6,11.63-4.26,17.36c-0.47,0-0.94,0-1.41,0
		c-0.65-0.45-1.47,0.09-2.13-0.35c-4-0.45-8.01-0.89-12.01-1.35c-2.71-0.31-5.38,0.22-8.06,0.43c-2.85,0.23-5.69,0.61-8.53,0.91
		c-1.22,0.13-2.44,0.24-3.66,0.35c-1.3-5.34-2.6-10.68-3.91-16.02c-0.08-0.34-0.23-0.66-0.35-0.99c0-0.24,0-0.47,0-0.71
		c-0.14-0.65-0.57-1.35,0.3-1.84c0.64,1.15,1.59,1.25,2.81,1.02c2.81-0.53,5.66-0.5,8.51-0.61c0.18,0.05,0.34,0.13,0.49,0.24
		c0.47,1.23,1.32,2.14,2.21,3.1c1.49,1.59,2.49,3.58,3.56,5.47c1.1,1.96,2.29,3.85,3.47,5.76c0.81,1.31,1.1,1.31,1.93-0.03
		c1.12-1.8,2.22-3.63,3.28-5.47c1.02-1.79,1.86-3.72,3.5-5.06c1.28-1.05,1.59-2.66,2.49-3.93
		C106.58,124.97,110.53,125.33,114.37,126.53z"/>
	<path class="st57" d="M70.41,124.76c-0.59,0.5-0.26,1.18-0.36,1.77c-0.35-1.89-0.71-3.78-1.06-5.67
		c-1.52-3.48-1.54-7.28-2.29-10.93c-0.29-2.17-1.26-4.25-0.86-6.51c1.56-1.28,1.44-3.15,1.42-4.82c-0.02-3.24,1.17-6.18,1.92-9.23
		c0.24-0.97,0.55-1.9,0.54-2.92c-0.03-1.99,0.57-3.89,0.95-5.82c0.12-0.62,0.52-1.18,1.14-1.19c0.93-0.02,0.89,0.91,1.15,1.52
		c0.7,5.09,1.1,10.22,1.49,15.34c0,0.31,0,0.63-0.02,0.94c-1.08,7.99-2.11,15.99-3.18,23.98C71.09,122.41,71.21,123.7,70.41,124.76z
		"/>
	<path class="st58" d="M67.22,109.87c0.54,3.2,1.08,6.4,1.61,9.6c0.08,0.46,0.11,0.92,0.17,1.38c-1.49-0.85-2.37-0.66-3.2,0.78
		c-0.61,1.06-1.3,0.79-1.65-0.04c-0.54-1.29-0.83-2.68-1.22-4.03c0.03-0.9,0.06-1.8,0.1-2.7c0.11-0.25,0.22-0.5,0.32-0.74
		c1.26-0.67,2.11-1.5,1.98-3.14C65.22,109.81,66.15,109.37,67.22,109.87z"/>
	<path class="st59" d="M127.85,31.9c-0.12,0-0.23,0-0.35,0c-0.68-2.21-2.08-4.04-3.2-6.02c-0.11-0.15-0.1-0.3,0-0.45
		c1.95-0.69,2.24-2.72,3.25-4.15c0.31-0.44-0.26-0.83-0.62-1.13c-1.7-1.43-3.81-1.7-5.89-2.04c-0.56-0.09-0.37,0.49-0.61,0.69
		c-0.78,0.1-1.12-0.28-1.12-1.03c0.03-1.32-0.79-2.3-1.36-3.37c-1.19-2.21-2.4-4.4-3.59-6.61c4.31,1.53,8.62,3.07,12.94,4.58
		c0.49,0.17,1.05,0.71,1.6,0.04c2.07,0.69,2.96,2.06,2.49,4.24c-0.56,2.87-1.18,5.73-1.76,8.59c-0.2,0.97-0.31,1.99-1.07,2.75
		C128.51,29.34,127.76,30.55,127.85,31.9z"/>
	<path class="st60" d="M128.56,28.01c0.92-3.79,1.21-7.73,2.83-11.34c-0.24,3.9-0.48,7.8-0.71,11.7c-0.19,0.2-0.06,0.56-0.35,0.71
		c-0.32-0.08-0.86,0.21-0.83-0.48C129.53,27.84,128.95,28.07,128.56,28.01z"/>
	<path class="st61" d="M130.33,29.07c0.01-0.29,0.07-0.55,0.35-0.71c0.68,0.75,1.13,1.72,2.12,2.16
		C129.8,32.02,130.38,31.6,130.33,29.07z"/>
	<path class="st39" d="M113.67,7.8c-0.12,0.12-0.24,0.24-0.36,0.35c-0.55,0.63-1.35,0.7-2.09,0.84c-6.1,1.09-12.17,2.3-18.27,3.38
		c-0.88,0.16-1.76,0.23-2.64,0.09c-6.29-1.03-12.62-1.76-18.91-2.73c-0.76-0.12-1.52-0.21-2.19-0.63c-0.07-0.08-0.14-0.16-0.21-0.23
		c4.35-2.03,8.96-3.41,13.39-5.24c1.89-0.78,3.82-1.48,5.73-2.22c0.04-0.02,0.09-0.1,0.08-0.12c-0.05-0.1-0.11-0.19-0.17-0.28
		c0.03-0.09,0.08-0.18,0.13-0.27c0.62,0.01,1.23,0.03,1.78-0.35c1.97-0.17,3.89,0.08,5.78,0.63c-0.28,0.04-0.57,0.07-1.35,0.17
		c5.88,1.96,11.31,3.75,16.72,5.58C111.96,7.07,112.92,7.18,113.67,7.8z"/>
	<path class="st62" d="M64.71,17.7c1.71-2.76,2.76-5.82,3.93-8.82c0.12-0.01,0.23-0.01,0.35-0.01c0,0,0.01,0.02,0.01,0.02
		c1.58,2.04,2.04,4.6,3.13,6.88c0.48,1.01,1.36,1.99,0.91,3.29c-0.44,0.39-0.78,0.07-1.04-0.21c-0.63-0.7-1.43-0.96-2.33-1
		c-1-0.02-1.98-0.46-2.99-0.1c-0.59,0.12-1.16,0.44-1.78,0.15C64.83,17.83,64.77,17.76,64.71,17.7z"/>
	<path class="st63" d="M72.17,73.35c0.23,0,0.46,0,0.69,0c0.67,0.17,1.59-0.32,1.95,0.7c-0.01,0.12-0.03,0.31-0.1,0.32
		c-1.76,0.32-3.01,1.47-4.24,2.64c-0.39-0.35-0.17-0.81-0.23-1.22c0.21-1.55-1.21-1.24-1.95-1.71c0,0,0,0,0,0
		c0.8-1.43,2.2-0.33,3.24-0.77C71.74,73.32,71.96,73.33,72.17,73.35z"/>
	<path class="st64" d="M51.97,17.37c1.05,0.61,0.97,1.8,1.33,2.73c0.94,2.37,1.72,4.79,2.56,7.2c-0.54,0.74-0.35,1.69-0.71,2.48
		c-0.35,0.24-0.71,0.47-1.06,0.71c-0.38-0.27-0.38-0.67-0.38-1.08c-0.51-3.38-1.03-6.76-1.54-10.14C52.1,18.64,52.04,18,51.97,17.37
		z"/>
	<path class="st65" d="M53.73,29.41c0.43,0.25,0.36,0.68,0.38,1.08c-0.23,0.5,0.59,1.28-0.14,1.5c-0.66,0.2-1.43-0.18-1.98-0.75
		C52.81,30.87,52.96,29.84,53.73,29.41z"/>
	<path class="st66" d="M115.1,73.75c-0.12,0.11-0.24,0.23-0.37,0.34c-0.32,0.3-1.02,0.34-0.72,1.06c0,0.12,0,0.23,0,0.35
		c-0.29,0.47-0.62,0.89-1.26,0.81c-0.53-1.26-1.48-1.94-2.85-2.02c-0.49-0.54-0.03-0.72,0.37-0.8c0.3-0.06,0.52-0.11,0.57-0.45
		c1.42,0,2.83,0,4.25,0.01C115.09,73.28,115.09,73.51,115.1,73.75z"/>
	<path class="st24" d="M55.16,29.78c-0.48-1.03-0.31-1.88,0.71-2.48c0.08,1.05,0.83,1.84,1.06,2.83
		C56.41,29.65,55.7,30.13,55.16,29.78z"/>
	<path class="st67" d="M112.96,76.21c0.35-0.24,0.71-0.48,1.06-0.71c0.72,2.92,1.42,5.85,2.16,8.76c0.16,0.62,0.39,1.22,0.33,1.87
		c-0.35,0.24-0.35,0.57-0.24,0.94c1.07,3.66,2.02,7.34,2.77,11.07c0.1,0.5,0.42,0.97,0.64,1.45c-0.19,0.21-0.05,0.6-0.39,0.73
		c-0.71,1.33-0.39,2.9-1.01,4.25c-1.19,0.62-1.44-0.33-1.36-1.04c0.22-1.87,0.78-3.74-0.96-5.23c1.15-2.47-1.45-4.53-0.73-7.08
		c0.3-1.05-0.45-2.48-0.94-3.65c-0.48-1.14-0.14-2.33-0.49-3.46c-0.62-2.01-0.15-4.3-1.55-6.12c-0.84-0.38-2.08,0.18-2.52-1.11
		C110.7,76.15,111.91,76.59,112.96,76.21z"/>
	<path class="st68" d="M120.34,101.4c-0.53,0.53-0.1,1.23-0.33,1.82c-0.41-0.67-0.27-1.44-0.39-2.16c-0.08-0.34-0.26-0.73,0.37-0.68
		C120.11,100.71,120.22,101.06,120.34,101.4z"/>
	<path class="st69" d="M119.99,100.37c-0.12,0.23-0.25,0.45-0.37,0.68c-0.11-0.25-0.22-0.49-0.33-0.74
		c0.07-0.28,0.04-0.61,0.39-0.73C119.78,99.84,119.89,100.11,119.99,100.37z"/>
	<path class="st70" d="M70.42,75.5c0,0.47,0,0.93,0,1.4c0.77,0.24,1.49,0.57,2.09,1.12c0.53,0.81,0.7,1.62,0.03,2.44
		c-0.46-0.06-0.15-0.97-0.74-0.76c-0.41,0.15-0.76,0.53-0.85,1.05c-0.67,3.8-0.96,7.65-2.04,11.41c-0.61,2.13-1.69,4.25-1.19,6.75
		c0.14,0.73,0.45,2.03-0.2,3.07c-0.37,0.6-0.65,1.07-1.37,1.15c-1.4-0.58-0.62-2.06-1.23-2.96c-0.16-0.5-0.11-0.96,0.19-1.4
		c-0.1-1.1,0.72-1.99,0.7-3.07c1.14-2.99,1.64-6.15,2.47-9.23c0.26-0.71,0.33-1.42,0-2.13c0.54-2.15,1.06-4.3,1.61-6.44
		c0.29-1.14,0.25-2.19-0.56-3.13C70.02,74.56,70.69,74.33,70.42,75.5z"/>
	<path class="st71" d="M65.11,98.78c0.01,0.51,0.02,1.03,0.02,1.54c0.2,0.39,0.14,0.67-0.33,0.77c-0.18-0.36,0.04-0.87-0.41-1.13
		C64.4,99.42,64.59,99,65.11,98.78z"/>
	<path class="st72" d="M64.8,101.09c0.11-0.26,0.22-0.51,0.33-0.77c1.01,0.7,0.3,2.02,1.02,2.82c-0.11,2.32,0.65,4.5,1.06,6.73
		c-1.49-0.35-1.58,0.5-1.26,1.55c0.42,1.38-1.32,1.6-1.42,2.78c-0.04,0.52-0.79,0.07-1.2-0.08c0.01-0.7,0.02-1.39,0.03-2.09
		c0.55-2.81,0.91-5.64,1.07-8.5C64.85,102.76,64.71,101.91,64.8,101.09z"/>
	<path class="st73" d="M110.84,73.04c-0.07,0.23,0.92,0.51-0.02,0.68c-0.38,0.07-0.8-0.03-1.06,0.36c-0.4,0.44-0.93,0.48-1.47,0.5
		c-1.59-0.03-3.19,0-4.78,0.02c-0.48,0.01-1.06,0-1.15-0.57c-0.1-0.63,0.54-0.69,0.96-0.77c2.13-0.42,4.27-0.79,6.46-0.61
		c0.25,0.1,0.5,0.2,0.75,0.3C110.65,72.92,110.75,72.95,110.84,73.04z"/>
	<path class="st74" d="M72.89,19.15c-0.69-2.85-2.26-5.35-3.18-8.11C69.48,10.31,69.24,9.6,69,8.88c4.51,0.65,9.02,1.3,13.53,1.96
		c2.78,0.4,5.54,0.97,8.33,1.17c2.52,0.18,4.96-0.72,7.44-1.15c5.01-0.87,10.01-1.79,15.02-2.7c1.14,0.19,0.45,0.93,0.31,1.33
		c-1.5,4.2-3.14,8.35-4.56,12.57c-1.1,3.27-2.69,6.38-3.19,9.85c-0.12,0-0.24,0-0.35,0c-2.94-3.69-5.59-7.6-8.36-11.42
		c-1.49-2.05-2.99-4.1-4.47-6.16c-0.97-1.35-1.09-1.35-2.06,0.1c-4.05,6.02-7.99,12.11-11.95,18.2c-0.16,0.1-0.31,0.09-0.46-0.01
		c0.08-1.29-0.51-2.39-1.02-3.51c-1.28-2.81-2.09-5.83-3.6-8.54C72.98,20.28,72.65,19.85,72.89,19.15z"/>
	<path class="st75" d="M78.21,32.62c0.12,0,0.24,0,0.36,0c0.95-0.1,1.09,0.71,1.44,1.29c0.18,0.41,0.28,0.84,0.15,1.29
		c-0.49,0.99-0.8,2.07-1.36,3.03c-0.6,1.02-0.17,1.54,0.89,1.67c1.1,0.14,2.23,0.04,3.27,0.54c1.85,0.61,3.83,0.37,5.69,0.92
		c0.52,0.15,1.24-0.01,1.33,0.84c-1.38,0.93-2.98,0.13-4.59,0.58c1.13,2.67,2.87,4.96,4.19,7.48c0.38,0.72,0.87,1.39,1.23,2.13
		c0.25,0.51,0.6,1.09-0.21,1.48c-2.75,0.37-5.53,0.15-8.27,0.53c-0.52,0.07-1.06-0.04-1.51-0.38c-0.33-0.89,0.46-0.86,0.86-0.86
		c1.75,0.01,1.56-0.91,1.09-2.04c-0.2-0.48-0.36-0.98-0.6-1.49c-0.56,1.37-0.36,3.02-1.64,4.08c-1.76,0.52-3.61,0.4-5.4,0.67
		c-0.51,0.08-1.07-0.13-1.53,0.23c-0.94,0-1.89,0-2.83,0c1.03-3.11,2.03-6.24,3.09-9.34C75.29,41.03,76.76,36.83,78.21,32.62z"/>
	<path class="st76" d="M72.89,19.15c0.24,0.47,0.47,0.95,0.71,1.42c0.2,2.26-0.06,4.37-1.92,5.96c-0.25,0.21-0.61,0.28-0.92,0.42
		c-0.13-0.13-0.19-0.28-0.2-0.45c0.1-0.72,0.62-1.24,0.93-1.85c1.1-2.13,0.66-4.5-1.13-5.93c-0.39-0.35-0.82-0.68-0.73-1.3
		C71.12,17.24,72.02,18.18,72.89,19.15z"/>
	<path class="st77" d="M70.75,26.57c0,0.13,0.01,0.26,0.01,0.38c-2.02,1.18-4.15,1.39-6.38,0.7c-0.54-0.91-1.73-1.48-1.44-2.82
		c0.07-0.03,0.15-0.07,0.22-0.1c0.9,0.21,1.48,0.97,2.3,1.34c1.21,0.68,2.45,0.93,3.81,0.45C69.74,26.36,70.27,26.17,70.75,26.57z"
		/>
	<path class="st12" d="M80.74,53.48c0.73,0.78,1.72,0.52,2.49,0.36c2.58-0.52,5.17-0.2,7.75-0.33c0.94-0.68,1.88-0.67,2.83,0
		c0.12,0.01,0.24,0.02,0.36,0.03c-4.01,0.71-7.52,2.86-11.39,3.97c-0.37,0.11-0.68,0.41-1.02,0.63c-1.05,0.44-1.91-0.13-2.77-0.55
		c-1.15-0.55-2.17-1.33-3.3-1.92c-0.84-0.07-1.4-0.7-2.09-1.07c-0.22-0.53-0.04-0.7,0.53-0.72C76.33,53.76,78.54,53.61,80.74,53.48
		L80.74,53.48z"/>
	<path class="st78" d="M75.68,55.66c1.51,0.3,2.73,1.25,4.11,1.85c0.64,0.27,1.21,0.7,1.96,0.62c0.15,0.09,0.69-0.16,0.33,0.38
		C79.34,58.94,77.51,57.3,75.68,55.66z"/>
	<path class="st79" d="M62.6,23.76c-0.92,0.46-0.82,1.5-1.26,2.24c-0.48,0.81-0.91,0.85-1.84,0.69c-2.99-0.51-3.65-2.72-4.32-5.12
		c-0.21-0.75,0.1-1.03,0.48-1.29c2.73-1.83,5.74-2.74,9.05-2.58c0,0,0.03,0.07,0.03,0.07c0.18,0.74-0.47,1.02-0.8,1.47
		c-0.14,0.16-0.28,0.32-0.39,0.51c-0.13,0.27-0.16,0.56-0.2,0.86c-0.12,0.73-0.29,1.46-0.31,2.21
		C62.99,23.18,62.91,23.52,62.6,23.76z"/>
	<path class="st77" d="M62.6,23.76c0.01-0.37,0.02-0.74,0.03-1.1c1.1,0.54,0.84,1.31,0.38,2.13c0,0-0.07,0.05-0.07,0.05
		C62.56,24.56,62.62,24.15,62.6,23.76z"/>
	<path class="st80" d="M106.58,148.51c1.53-0.47,3.07-0.95,4.6-1.42c1.22-0.25,1.5,0.57,1.73,1.48c0.84,3.29,1.69,6.58,2.53,9.87
		c-1.89,0.87-4,0.81-5.98,1.3c-1.22,0.3-2.22-0.22-2.18-1.77c0.01-0.46,0.11-0.96-0.35-1.3c-0.24-2.03-0.49-4.06-0.7-6.1
		C106.16,149.86,106.16,149.14,106.58,148.51z"/>
	<path class="st67" d="M114.01,75.14c-0.71-1-0.03-1.05,0.72-1.06C114.49,74.44,114.25,74.79,114.01,75.14z"/>
	<path class="st20" d="M70.42,75.5c-0.04-0.71-0.54-0.73-1.07-0.71c-0.35-0.24-0.71-0.48-1.06-0.71c0.56,0.06,1.12,0.1,1.67,0.19
		C70.84,74.39,70.98,74.83,70.42,75.5z"/>
	<path class="st13" d="M68.29,84.36c0.29-0.07,0.8-0.31,0.63,0.28c-0.18,0.62-0.1,1.35-0.63,1.85c-0.06-0.48,0.17-1.03-0.34-1.4
		C68.06,84.84,68.17,84.6,68.29,84.36z"/>
	<path class="st63" d="M109.78,72.64c-2.38,0.4-4.77,0.81-7.15,1.21c0,0.08,0,0.16,0,0.23c1.91,0,3.81,0,5.72,0
		c-0.05,0.83-0.77,0.79-1.29,0.91c-1.83,0.41-3.67,0.8-5.54,0.96c-0.17,0-0.35-0.01-0.52-0.04c-1.45-0.3-2.36-1.99-4.39-1.11
		c-1.44,0.62-3.33-0.28-5.04-0.04c-1.69,0.24-3.47-0.12-5.08,0.34c-1.42,0.41-2.82,0.59-4.26,0.72c-1.26,0.04-2.43-0.43-3.65-0.65
		c-0.39-0.07-0.83-0.21-0.75-0.79c1.99-0.51,3.96,0.01,5.88,0.08c0.3,0.04,0.01-0.32,0.08-0.09c0.03,0.1-0.01,0.14-0.13,0.12
		c-2.54-0.41-5.12-0.27-7.67-0.65c-0.65-0.1-1.43,0.08-1.68-0.82c9.1-0.41,18.2-0.34,27.31-0.42c2.16-0.02,4.32-0.38,6.49-0.29
		C108.68,72.35,109.3,72.14,109.78,72.64z"/>
	<path class="st81" d="M74.31,73.03c2.41,0.35,4.82,0.74,7.24,1.03c0.92,0.11,1.87-0.03,3.06,0.75c-2.49-0.41-4.63-0.39-6.76-0.37
		c-0.27,0.28-0.61,0.32-0.98,0.28c-0.59-0.17-1.2-0.16-1.79-0.33c-0.16-0.08-0.3-0.18-0.42-0.31c-0.43-0.67-1.39-0.03-1.8-0.73
		C73.26,72.86,73.81,73.05,74.31,73.03z"/>
	<path class="st82" d="M79.63,34.03c-0.3-0.51-0.42-1.15-1.06-1.42c-0.06-0.56,0.19-0.99,0.5-1.46c3.9-5.88,7.8-11.75,11.64-17.67
		c0.75-1.16,1.1-1.19,1.93-0.02c4,5.65,8.09,11.24,12.15,16.85c0.35,0.48,0.67,0.97,0.71,1.59c-0.57,0.46-0.7,1.18-1.06,1.77
		c-0.89,0.14-1.16-0.57-1.31-1.14c-0.42-1.6-1.48-2.65-2.76-3.55c-1.98-1.39-3.97-2.76-5.98-4.11c-0.59-0.4-1.22-0.73-1.97-0.66
		c-0.25,0-0.5,0-0.76,0c-0.87-0.08-1.54,0.25-2.26,0.76c-1.87,1.34-3.8,2.6-5.7,3.88c-1.33,0.89-2.38,1.91-2.7,3.54
		C80.64,33.02,80.8,34.08,79.63,34.03z"/>
	<path class="st83" d="M93.8,53.51c-0.94,0-1.88,0-2.83,0c-1.93-3.3-3.87-6.59-5.8-9.89c-0.26-0.44-0.75-0.91-0.44-1.44
		c0.32-0.56,0.84,0.02,1.28,0.01c1.3-0.03,2.6-0.01,3.9-0.01c1.42-0.75,2.83-0.75,4.25,0c1.47,0,2.95,0.02,4.42-0.01
		c0.9-0.02,1.46,0.17,0.85,1.17C97.41,46.65,96,50.3,93.8,53.51z"/>
	<path class="st84" d="M94.16,42.18c-1.42,0-2.83,0-4.25,0c-1.85-0.64-3.77-0.93-5.7-0.96c-0.6-0.01-0.95-0.27-1.39-0.46
		c-0.68-0.67-1.92-0.86-1.81-2.18c0.92-0.66,1.88,0.5,2.81-0.06c0.17-0.03,0.33-0.02,0.48,0.04c0.27,0.19,0.5,0.44,0.78,0.63
		c4.69,2.17,9.37,2.17,14.04-0.04c0.31-0.17,0.62-0.31,0.97-0.35c0.91,0.21,1.74-0.72,2.66-0.18c0.39,1.09-0.53,1.35-1.15,1.79
		c-1.22,0.97-2.72,0.87-4.12,1.04C96.35,41.59,95.22,41.7,94.16,42.18z"/>
	<path class="st85" d="M92.41,23.75c0.65-0.02,1.23,0.1,1.8,0.51c2.6,1.86,5.24,3.66,7.87,5.48c0.73,0.5,0.97,1.29,1.23,2.06
		c0.23,0.72,0.37,1.49,1.14,1.88c-0.12,0.35-0.24,0.71-0.35,1.06c-0.08,0.58-0.29,1.12-0.59,1.62c-0.38,0.63-0.84,0.77-1.39,0.19
		c-0.84-1.54-1.22-3.26-1.95-4.84c-0.12-1.48-1.1-2.4-2.18-3.23c-1.53-1.17-3.08-2.31-4.61-3.47C92.95,24.7,92.24,24.53,92.41,23.75
		z"/>
	<path class="st86" d="M102.34,36.5c0.63,0.38,0.8-0.12,0.94-0.54c0.16-0.49,0.25-1.01,0.81-1.22c0.86,1.2,1.24,2.62,1.84,3.94
		c0.57,1.25-0.14,1.62-1.15,1.7c-1.05,0.08-2.11,0.02-3.17,0.03c0.25-0.66,1.1-0.95,1.06-1.77C102.2,37.99,101.82,37.32,102.34,36.5
		z"/>
	<path class="st87" d="M102.33,53.87c-1.53-0.18-3.13,0.42-4.62-0.34C99.25,53.71,100.84,53.11,102.33,53.87z"/>
	<path class="st87" d="M97,53.53c-0.71,0.53-1.42,0.53-2.13,0C95.58,53.53,96.29,53.53,97,53.53z"/>
	<path class="st44" d="M106.58,143.9c0.71,0.11,1.51-0.28,2.13,0.35C107.99,144.14,107.2,144.54,106.58,143.9z"/>
	<path class="st88" d="M119.33,17.79c0.24,0.46,0.6,0.8,1.05,1.04c0.42,0.14,0.59,0.43,0.5,0.87c-0.46,0.72-1.22,0.6-1.91,0.62
		c-1.41,0.04-2.82,0.04-4.23,0c-1.04-0.03-1.22,0.35-0.82,1.27c0.45,1.02,0.93,2.03,1.36,3.06c0.2,0.49,0.37,0.99,0.18,1.54
		c-1.42,0.8-2.15-0.35-2.92-1.12c-0.65-0.66-0.98-1.57-1.31-2.45c-0.11-2.6,0.56-3.87,2.27-4.31c0.26,0.23-0.21,0.94,0.73,0.81
		c1.39-0.2,2.82-0.05,4.32-0.05c-0.37-0.67-1.52-0.7-1.35-1.7C117.93,17.49,118.63,17.64,119.33,17.79z"/>
	<path class="st89" d="M124.3,25.53c0,0.12,0,0.24,0,0.36c-1.33,1.49-3.15,1.62-4.96,1.76c-0.04-1.22,1.81-1.63,1.31-3.05
		c0.01-1.11,0.08-2.21,0.62-3.21c0.71-0.54,1.13,0.05,1.41,0.5C123.38,23.02,124.17,24.13,124.3,25.53z"/>
	<path class="st90" d="M117.22,17.35c0.64,0.9,1.85,1.09,2.84,2.16c-2.28,0-4.24,0.04-6.19-0.01c-1.38-0.04-0.09-0.76-0.23-1.12
		c-0.11-0.85,0.73-0.66,1.09-1C115.56,17.52,116.38,16.55,117.22,17.35z"/>
	<path class="st91" d="M114.72,17.37c-0.36,0.33-0.72,0.66-1.09,1c-1.98,0.82-1.86,2.65-2.08,4.32c0.39,1.17,0.7,2.37,1.74,3.19
		c0.32,0.25,0.58,0.6,0.37,1.08c-3.29-1.24-4.56-6-1.69-8.76C112.75,17.44,113.7,17.3,114.72,17.37z"/>
	<path class="st92" d="M113.66,26.95c-1-1.27-2.36-2.37-2.1-4.27c1.01,1.49,1.62,3.42,3.87,3.56c0.1-0.02,0.19-0.04,0.29-0.06
		c1.03,0.02,2.15-0.45,2.98,0.59c-1.28,1.52-2.84,0.66-4.32,0.51C114.14,27.18,113.9,27.07,113.66,26.95z"/>
	<path class="st93" d="M114.38,27.29c1.45-0.07,2.97,0.31,4.27-0.7c0.44-1.11,1.26-1.7,2.44-1.82c0.46,1.59-1.1,1.96-1.75,2.87
		C117.62,28.33,115.98,28.11,114.38,27.29z"/>
	<path class="st94" d="M110.47,96.76c0,0.23,0,0.47,0,0.7c-0.33,2.95-1.45,5.68-2.23,8.51c-1.47,5.33-3.01,10.65-4.57,15.96
		c-0.34,1.15-0.41,2.47-1.51,3.29c-1.25-0.78-1.55-2.17-2.04-3.39c-2.23-5.59-4.94-10.96-7.18-16.54c-0.15-0.37-0.28-0.78-0.79-1.16
		c-0.87,1.88-1.69,3.75-2.48,5.62c-1.88,4.45-3.98,8.81-5.79,13.29c-0.33,0.81-0.7,1.63-1.45,2.18c-0.2,0.03-0.36-0.03-0.5-0.18
		c-1.92-5.27-3.14-10.75-4.79-16.1c-0.82-2.65-1.48-5.34-2.34-7.98c-0.41-1.24-0.63-2.51-0.65-3.82c0.18-0.83,0.79-0.71,1.36-0.58
		c0.56,0.13,1.09,0.37,1.64,0.55c4.39,1.53,8.79,3.03,13.13,4.69c1.23,0.47,2.36,0.44,3.6,0.06c4.16-1.3,8.2-2.93,12.3-4.41
		C107.59,97.16,108.83,95.75,110.47,96.76z"/>
	<path class="st95" d="M72.53,80.46c-0.02-0.84,0.14-1.71-0.35-2.48c0.17-0.98,1.02-0.83,1.64-0.91c3.87-0.52,7.76-0.89,11.66-1.16
		c0.41-0.09,0.82-0.09,1.23-0.03c3.68,1.1,7.35,1,11.03-0.03c0.51-0.11,1.03-0.16,1.55-0.13c2.82,0.39,5.69,0.29,8.51,0.66
		c0.68,0.09,1.41-0.03,1.96,0.54c0.59,0.91,2.13-0.39,2.49,1.06c-0.46,4.63-0.91,9.27-1.37,13.9c-0.14,1.39,0.15,2.82-0.4,4.17
		c-1.02,0.18-1.43-0.7-1.98-1.24c-5.13-4.98-9.83-10.36-14.96-15.34c-1.06-1.03-1.62-1.03-2.65,0.02
		c-5.22,5.3-10.19,10.84-15.58,15.97c-0.39,0.37-0.58,1.09-1.35,0.94c-0.45-4.73-0.91-9.47-1.36-14.2
		C72.54,81.63,72.55,81.04,72.53,80.46z"/>
	<path class="st96" d="M73.96,96.41c0.63-0.69,1.25-1.4,1.9-2.07c4.98-5.1,9.99-10.17,14.92-15.32c1.06-1.11,1.66-1.3,2.84-0.06
		c5.07,5.33,10.26,10.56,15.41,15.82c0.45,0.46,0.96,0.86,1.45,1.28c0,0.24,0,0.47-0.01,0.71c-1.57-0.27-2.79,0.88-4.24,1.06
		c-1.41,0.3-2.52-0.25-3.39-1.31c-0.8-0.98-1.74-1.81-2.9-2.26c-2.47-0.96-4.44-2.83-7.08-3.53c-1.11-0.29-1.91-0.3-2.77,0.36
		c-2.22,1.72-4.76,2.84-7.29,3.99c-0.59,0.27-1.3,0.47-1.59,1.06c-0.92,1.86-2.46,1.66-4.06,1.34c-1,0.34-1.77-1.24-2.84-0.35
		c-0.12,0.16-0.23,0.16-0.35,0C73.96,96.88,73.96,96.64,73.96,96.41z"/>
	<path class="st97" d="M82.11,125.11c0.12,0,0.24,0,0.36,0c0.68-0.6,1.52-0.56,2.34-0.56c4.94-0.01,9.88-0.01,14.81,0
		c0.82,0,1.66-0.03,2.34,0.57c1.64-3.59,2.39-7.45,3.51-11.2c1.5-4.99,2.89-10.02,4.34-15.03c0.14-0.49,0.43-0.94,0.65-1.41
		c0.85,3,0.96,6.12,1.41,9.19c0.73,4.98,1.35,9.98,1.99,14.98c0.21,1.63,0.34,3.26,0.51,4.9c-2.96-0.3-5.93-0.53-8.88-0.92
		c-1.07-0.14-2.11-0.07-3.17-0.14c-1.6,1.35-3.23,2.5-5.55,2.03c-0.75-0.15-1.63,0.17-2.42,0.44c-0.45,0.16-0.92,0.34-1.37,0.1
		c-1.83-0.98-3.64-0.4-5.43,0.07c-1.59,0.42-2.74-0.45-3.85-1.26c-0.55-0.4-1.06-0.92-1.59-1.38c-0.09-0.08-0.12-0.16-0.09-0.24
		C82.05,125.15,82.08,125.11,82.11,125.11z"/>
	<path class="st97" d="M82.11,125.11c0,0.12,0,0.24,0,0.36c-3.37,0.43-6.82,0.11-10.15,0.97c-1.61,0.42-1.62-0.58-1.55-1.68
		c0.51-4.3,0.98-8.6,1.52-12.89c0.52-4.11,1.11-8.22,1.67-12.33c0.11-0.81,0.24-1.62,0.36-2.43c0.12,0,0.23,0,0.35,0
		c2.5,8.76,5,17.51,7.52,26.27C81.99,123.96,82.14,124.51,82.11,125.11z"/>
	<path class="st98" d="M82.11,125.47c0.45,0.05,1.17-0.18,1.28,0.29c0.35,1.44,1.92,1.07,2.62,1.94c0.23,0.29,0.78,0.39,0.97,0.18
		c1.06-1.18,2.64-0.12,3.78-0.94c0.22-0.16,0.78-0.12,1.01,0.05c1.08,0.79,2.12,0.64,3.34,0.3c1.07-0.29,2.21-0.64,3.43-0.14
		c0.84,0.34,1.57-0.46,2.09-1.02c0.51-0.55,1.01-0.72,1.69-0.67c0.65,2.01-0.99,3.17-2.04,4.12c-2.15,1.94-2.94,4.62-4.5,6.86
		c-0.87,1.25-1.55,2.63-2.35,3.93c-0.82,1.34-1.32,1.23-2.18-0.04c-1.98-2.91-3.49-6.09-5.48-9c-0.92-1.35-1.57-2.82-3.03-3.77
		C82.1,127.16,82.05,126.26,82.11,125.47z"/>
	<path class="st79" d="M124.3,25.53c-1.25-1.22-1.18-3.33-2.88-4.24c-0.61,0.01-0.59-0.47-0.67-0.87c-0.05-0.31,0.27-0.62-0.01-0.92
		c-0.12-0.22-0.25-0.44-0.37-0.66c-0.13-0.43-0.26-0.86-0.4-1.33c2.35,0.5,4.78,0.53,6.84,2c1.18,0.84,1.94,1.56,0.65,2.95
		c-0.59,0.63-0.95,1.48-1.34,2.27C125.73,25.54,125.18,25.87,124.3,25.53z"/>
	<path class="st99" d="M63.31,19.48c0.13-0.12,0.25-0.24,0.38-0.36c0.88-0.65,1.82-1.18,2.79-1.68c1.04-0.9,2.11,0.05,3.16-0.03
		c0.27,0.31,0.54,0.63,0.8,0.94c0.22,0.47,1.26,0.7,0.43,1.47c-2.22,0.96-4.52,0.54-6.8,0.42C63.69,20.23,63.23,20.06,63.31,19.48z"
		/>
	<path class="st100" d="M66.48,17.45c-0.79,0.8-1.64,1.49-2.79,1.68c0.35-0.45,0.7-0.9,1.05-1.35
		C65.32,17.66,65.9,17.55,66.48,17.45z"/>
	<path class="st101" d="M85.66,76.21c-1.88,0.67-3.88,0.3-5.81,0.68c-2.53,0.51-5.18,0.23-7.67,1.08c-0.88,0.12-1.26-0.58-1.76-1.08
		c0.14-0.1,0.38-0.17,0.41-0.29c0.43-1.72,1.45-2.52,3.26-2.22c0.17,0.03,0.38-0.2,0.58-0.31c0.12,0,0.24,0,0.35,0
		c0.53,0.43,1.24-0.06,1.78,0.34c0.35,0,0.71,0.01,1.06,0.01c1.54,0.35,3.07,0.7,4.61,1.06C83.58,75.48,84.72,75.4,85.66,76.21z"/>
	<path class="st102" d="M109.76,76.92c-3.56,0.03-7.09-0.51-10.63-0.71c0.01-0.71,0.5-0.65,0.97-0.6c0.4,0.04,0.8,0.19,1.16-0.11
		c2.39-0.33,4.8-0.58,7.09-1.41c0.47,0,0.94-0.01,1.41-0.01c1.74-0.3,3.02,0.09,3.2,2.13C112.13,77.5,110.83,76.68,109.76,76.92z"/>
	<path class="st103" d="M81.06,38.63c0.59,0.71,1.17,1.42,1.76,2.13c-1.07-0.39-2.19-0.28-3.28-0.39c-1.76-0.18-2.16-0.88-1.16-2.27
		c0.69-0.95,0.47-2.34,1.61-3.01c0.77-0.17,1.11,0.42,1.15,0.93c0.05,0.63,0.56,0.3,0.74,0.56C82.15,37.48,81.61,38.06,81.06,38.63z
		"/>
	<path class="st104" d="M81.74,36.51c-1.28,0.4-0.83-1.36-1.76-1.41c-0.12-0.35-0.24-0.71-0.35-1.06c0.92-0.25,0.46-1.33,1.06-1.77
		c0.64-0.94,1.49-0.94,2.42-0.52C83.65,33.61,82.82,35.1,81.74,36.51z"/>
	<path class="st48" d="M80.74,53.48c0.39-1.66,0.77-3.31,1.21-5.19c0.99,1.51,1.35,3.09,1.83,4.6c0.19,0.59-0.32,0.66-0.75,0.66
		C82.27,53.54,81.5,53.5,80.74,53.48C80.74,53.48,80.74,53.48,80.74,53.48z"/>
	<path class="st100" d="M71.11,19.51c-0.22-0.38-0.45-0.77-0.67-1.15c2.11,1.25,2.78,4.38,1.41,6.61c-0.34,0.55-0.73,1.07-1.1,1.6
		c-1.94,0.59-3.89,1.24-5.71-0.32c0.87-0.79,1.86-0.36,2.82-0.31c1.06-0.46,1.12-1.56,1.54-2.42
		C70.04,22.22,70.51,20.83,71.11,19.51z"/>
	<path class="st105" d="M68.28,26.56c-1.06-0.31-2.14-0.4-3.24-0.31c-0.68-0.49-1.35-0.98-2.03-1.47c-0.13-0.71,0.17-1.49-0.38-2.13
		c0.12-0.81,0.23-1.63,0.35-2.44c0.46-0.16,0.81,0.08,1.07,0.39c1.33,1.53,2.6,3.11,3.91,4.66C68.27,25.62,68.39,26.07,68.28,26.56z
		"/>
	<path class="st106" d="M68.28,26.56c-1.56-2.29-3.33-4.41-5.31-6.35c-0.03-0.31,0.06-0.56,0.33-0.73c2.6,0.74,5.2,0.4,7.8,0.02
		c0.64,0.62-0.05,1.08-0.25,1.54C70.09,22.92,69.56,24.92,68.28,26.56z"/>
	<path class="st107" d="M101.26,75.5c-0.54,0.74-1.59-0.03-2.13,0.7c-0.47,0-0.94,0.01-1.42,0.01c-3.67,0.52-7.33,0.81-11,0
		c-0.35,0-0.7,0-1.06,0c-1.06-0.24-2.13-0.48-3.19-0.72c2.38-0.36,4.69-1,7.13-1.11c2.48-0.12,4.95,0.07,7.41-0.02
		c1.25-0.04,2.39-0.26,3.27,0.86C100.52,75.54,100.91,75.48,101.26,75.5z"/>
	<path class="st63" d="M76.79,74.43c-0.6-0.07-1.28,0.24-1.78-0.34C75.62,74.16,76.29,73.85,76.79,74.43z"/>
	<path class="st108" d="M92.41,23.75c1.92,1.44,3.85,2.85,5.74,4.33c1.15,0.9,2.41,1.76,2.4,3.48c0.02,2.21,0.42,4.41,0,6.61
		c-0.85,1.18-1.24,0.15-1.61-0.4c-1.55-2.3-2.94-4.7-4.4-7.06c-2.55-4.1-2.49-4.1-4.98-0.06c-1.4,2.26-2.72,4.56-4.2,6.76
		c-0.32,0.48-0.5,1.1-1.18,1.23c-0.1,0-0.2,0-0.31,0c-1.02-1.74-0.36-3.64-0.49-5.46c-0.03-0.51,0.22-1.03,0.01-1.55
		c-0.41-0.87-0.14-1.64,0.49-2.25c2.32-2.24,4.84-4.23,7.78-5.64C91.91,23.75,92.16,23.75,92.41,23.75z"/>
	<path class="st109" d="M91.66,23.75c-2.33,1.91-4.93,3.46-7.13,5.54c-0.55,0.52-1.13,1.03-1.01,1.92c0.19,0.4-0.05,0.57-0.37,0.7
		c-0.84,0.03-1.7-0.13-2.47,0.36c0.05-2.24,1.84-3.08,3.35-4.14c1.87-1.31,3.78-2.58,5.61-3.95C90.3,23.68,90.98,23.8,91.66,23.75z"
		/>
	<path class="st110" d="M84.19,38.63c2.36-3.85,4.74-7.69,7.07-11.56c0.62-1.03,1.01-0.9,1.58,0.04c2.19,3.61,4.42,7.2,6.64,10.79
		c0.18,0.29,0.46,0.52,0.69,0.77c0.07,0.07,0.09,0.13,0.07,0.2c-0.02,0.07-0.05,0.1-0.07,0.1c-0.23,0.12-0.45,0.24-0.68,0.37
		c-2.47,0.8-5.02,0.57-7.54,0.57c-2.47,0-4.96,0.21-7.37-0.57C84.45,39.1,84.32,38.87,84.19,38.63z"/>
	<path class="st111" d="M84.58,39.34c4.97,0,9.94,0,14.91,0C95.53,41.96,88.54,41.96,84.58,39.34z"/>
	<path class="st112" d="M83.16,31.9c0.12-0.23,0.25-0.47,0.37-0.7c0.78,1.79,0.16,3.68,0.34,5.51c0.06,0.64,0.01,1.29,0.01,1.93
		c-0.11,0.81-0.58,0.76-1.14,0.48c-0.53-0.26-1.05-0.54-1.67-0.49c0.23-0.71,0.45-1.42,0.68-2.13
		C82.21,34.97,82.69,33.44,83.16,31.9z"/>
	<path class="st113" d="M100.17,38.97c0-0.1,0-0.2,0-0.3c0.01-1.82,0-3.65,0.03-5.48c0.01-0.57-0.19-1.19,0.35-1.65
		c0.6,1.65,1.19,3.3,1.79,4.96c0.08,0.72,0.48,1.38,0.34,2.14C101.81,38.49,101.15,39.9,100.17,38.97z"/>
	<path class="st106" d="M120.75,19.49c0.3,0.16,0.37,0.41,0.35,0.72c-1.12,2.11-2.88,3.72-4.31,5.59c-0.32,0.42-0.74,0.8-1.36,0.44
		c0,0,0,0.01,0,0.01c-0.87-2.04-1.74-4.07-2.73-6.39c2.21,0,4.22,0.02,6.23-0.01C119.55,19.83,120.24,20.1,120.75,19.49z"/>
	<path class="st105" d="M115.43,26.24c1.94-1.02,2.71-3.11,4.2-4.56c0.49-0.48,0.85-1.11,1.47-1.47c0.06,0.37-0.01,0.79,0.33,1.07
		c-0.11,1.16-0.23,2.33-0.34,3.49c-0.81,0.61-1.63,1.21-2.44,1.82C117.58,26.42,116.44,26.96,115.43,26.24z"/>
	<path class="st114" d="M101.97,125.11c-6.5,0-13,0-19.5,0c2.14-4.88,4.29-9.76,6.43-14.64c1.05-2.39,2.09-4.79,3.13-7.19
		c0.17-0.03,0.34-0.05,0.51-0.08C95.68,110.5,98.82,117.81,101.97,125.11z"/>
	<path class="st115" d="M77.15,97.47c1.41-0.31,3.08,0.09,3.83-1.81c0.32-0.81,1.45-1.05,2.23-1.26c0.95-0.26,1.85-0.33,2.14-1.47
		c0.07-0.26,0.32-0.45,0.53-0.35c1.44,0.64,2.17-0.6,3.07-1.22c1.44-0.98,2.41-1.85,4.6-0.83c3,1.4,5.99,2.83,8.66,4.72
		c1.31,0.92,2.22,2.39,4.01,2.57c-4.4,1.93-8.95,3.45-13.52,4.91c-1.12,0.36-2.07-0.31-3.05-0.66
		C85.47,100.57,81.31,99.01,77.15,97.47z"/>
	<path class="st101" d="M86.72,76.21c3.67,0,7.33,0,11,0C94.05,77.45,90.38,77.59,86.72,76.21z"/>
</g>
</svg>
