<svg width="401" height="642" viewBox="0 0 401 642" fill="none" xmlns="http://www.w3.org/2000/svg">
<line x1="16.7269" y1="92.4141" x2="16.7269" y2="629" stroke="#5ACBD0" stroke-opacity="0.03" stroke-width="1.28188"/>
<line x1="63.2952" y1="92.4141" x2="63.2952" y2="629" stroke="#5ACBD0" stroke-opacity="0.03" stroke-width="1.28188"/>
<line x1="109.863" y1="92.4141" x2="109.863" y2="629" stroke="#5ACBD0" stroke-opacity="0.03" stroke-width="1.28188"/>
<line x1="155.267" y1="92.4141" x2="155.267" y2="629" stroke="#5ACBD0" stroke-opacity="0.03" stroke-width="1.28188"/>
<line x1="201.835" y1="92.4141" x2="201.835" y2="629" stroke="#5ACBD0" stroke-opacity="0.03" stroke-width="1.28188"/>
<line x1="248.404" y1="92.4141" x2="248.404" y2="629" stroke="#5ACBD0" stroke-opacity="0.03" stroke-width="1.28188"/>
<line x1="294.972" y1="92.4141" x2="294.972" y2="629" stroke="#5ACBD0" stroke-opacity="0.03" stroke-width="1.28188"/>
<line x1="341.54" y1="92.4141" x2="341.54" y2="629" stroke="#5ACBD0" stroke-opacity="0.03" stroke-width="1.28188"/>
<line x1="388.108" y1="92.4141" x2="388.108" y2="629" stroke="#5ACBD0" stroke-opacity="0.03" stroke-width="1.28188"/>
<line x1="40.0111" y1="92.4141" x2="40.011" y2="629" stroke="#5ACBD0" stroke-opacity="0.03" stroke-width="1.28188"/>
<line x1="86.5789" y1="92.4141" x2="86.5789" y2="629" stroke="#5ACBD0" stroke-opacity="0.03" stroke-width="1.28188"/>
<line x1="133.147" y1="92.4141" x2="133.147" y2="629" stroke="#5ACBD0" stroke-opacity="0.03" stroke-width="1.28188"/>
<line x1="178.551" y1="92.4141" x2="178.551" y2="629" stroke="#5ACBD0" stroke-opacity="0.03" stroke-width="1.28188"/>
<line x1="225.119" y1="92.4141" x2="225.119" y2="629" stroke="#5ACBD0" stroke-opacity="0.03" stroke-width="1.28188"/>
<line x1="271.688" y1="92.4141" x2="271.688" y2="629" stroke="#5ACBD0" stroke-opacity="0.03" stroke-width="1.28188"/>
<line x1="318.256" y1="92.4141" x2="318.256" y2="629" stroke="#5ACBD0" stroke-opacity="0.03" stroke-width="1.28188"/>
<line x1="364.824" y1="92.4141" x2="364.824" y2="629" stroke="#5ACBD0" stroke-opacity="0.03" stroke-width="1.28188"/>
<line x1="392" y1="625.35" x2="18.4136" y2="625.349" stroke="#5ACBD0" stroke-opacity="0.03" stroke-width="1.28188"/>
<line x1="392" y1="604.058" x2="18.4136" y2="604.058" stroke="#5ACBD0" stroke-opacity="0.03" stroke-width="1.28188"/>
<line x1="392" y1="582.766" x2="18.4136" y2="582.766" stroke="#5ACBD0" stroke-opacity="0.03" stroke-width="1.28188"/>
<line x1="392" y1="561.474" x2="18.4136" y2="561.474" stroke="#5ACBD0" stroke-opacity="0.03" stroke-width="1.28188"/>
<line x1="392" y1="540.182" x2="18.4136" y2="540.182" stroke="#5ACBD0" stroke-opacity="0.03" stroke-width="1.28188"/>
<line x1="392" y1="518.891" x2="18.4136" y2="518.891" stroke="#5ACBD0" stroke-opacity="0.03" stroke-width="1.28188"/>
<line x1="392" y1="497.599" x2="18.4136" y2="497.599" stroke="#5ACBD0" stroke-opacity="0.03" stroke-width="1.28188"/>
<line x1="392" y1="476.307" x2="18.4136" y2="476.307" stroke="#5ACBD0" stroke-opacity="0.03" stroke-width="1.28188"/>
<line x1="392" y1="455.015" x2="18.4136" y2="455.015" stroke="#5ACBD0" stroke-opacity="0.03" stroke-width="1.28188"/>
<line x1="392" y1="433.724" x2="18.4136" y2="433.723" stroke="#5ACBD0" stroke-opacity="0.03" stroke-width="1.28188"/>
<line x1="392" y1="412.432" x2="18.4136" y2="412.432" stroke="#5ACBD0" stroke-opacity="0.03" stroke-width="1.28188"/>
<line x1="392" y1="391.14" x2="18.4136" y2="391.14" stroke="#5ACBD0" stroke-opacity="0.03" stroke-width="1.28188"/>
<line x1="392" y1="369.848" x2="18.4136" y2="369.848" stroke="#5ACBD0" stroke-opacity="0.03" stroke-width="1.28188"/>
<line x1="392" y1="348.556" x2="18.4136" y2="348.556" stroke="#5ACBD0" stroke-opacity="0.03" stroke-width="1.28188"/>
<line x1="392" y1="327.265" x2="18.4136" y2="327.265" stroke="#5ACBD0" stroke-opacity="0.03" stroke-width="1.28188"/>
<line x1="392" y1="305.973" x2="18.4136" y2="305.973" stroke="#5ACBD0" stroke-opacity="0.03" stroke-width="1.28188"/>
<line x1="392" y1="284.681" x2="18.4136" y2="284.681" stroke="#5ACBD0" stroke-opacity="0.03" stroke-width="1.28188"/>
<line x1="392" y1="263.389" x2="18.4136" y2="263.389" stroke="#5ACBD0" stroke-opacity="0.03" stroke-width="1.28188"/>
<line x1="392" y1="242.097" x2="18.4136" y2="242.097" stroke="#5ACBD0" stroke-opacity="0.03" stroke-width="1.28188"/>
<line x1="392" y1="220.806" x2="18.4136" y2="220.806" stroke="#5ACBD0" stroke-opacity="0.03" stroke-width="1.28188"/>
<line x1="392" y1="199.514" x2="18.4136" y2="199.514" stroke="#5ACBD0" stroke-opacity="0.03" stroke-width="1.28188"/>
<line x1="392" y1="178.222" x2="18.4136" y2="178.222" stroke="#5ACBD0" stroke-opacity="0.03" stroke-width="1.28188"/>
<line x1="392" y1="156.93" x2="18.4136" y2="156.93" stroke="#5ACBD0" stroke-opacity="0.03" stroke-width="1.28188"/>
<line x1="392" y1="135.639" x2="18.4136" y2="135.639" stroke="#5ACBD0" stroke-opacity="0.03" stroke-width="1.28188"/>
<line x1="392" y1="114.347" x2="18.4136" y2="114.347" stroke="#5ACBD0" stroke-opacity="0.03" stroke-width="1.28188"/>
<line x1="392" y1="93.0552" x2="18.4136" y2="93.0552" stroke="#5ACBD0" stroke-opacity="0.03" stroke-width="1.28188"/>
<rect x="7.69127" y="85.1741" width="385.617" height="549.135" stroke="#133A54" stroke-width="15.3825"/>
<rect x="16.1477" y="89.7816" width="368.705" height="2.45977" fill="#3B8CA1" fill-opacity="0.6"/>
<rect y="13.5288" width="401" height="63.954" fill="#133A54"/>
<path d="M166.629 42.9342L165.975 42.2807V39.6819L166.629 39.0284H167.673L168.281 39.5955V37.5751H169.153V42.8966H168.514L168.311 42.3671H168.281L167.673 42.9342H166.629ZM167.143 39.727L166.843 40.0274V41.9352L167.143 42.2356H167.59L168.281 41.6648V40.2978L167.59 39.727H167.143ZM172.698 39.0284L173.351 39.6819V42.2807L172.698 42.9342H170.767L170.114 42.2807V39.6819L170.767 39.0284H172.698ZM171.282 39.727L170.981 40.0274V41.9352L171.282 42.2356H172.183L172.484 41.9352V40.0274L172.183 39.727H171.282ZM178.267 42.8966H177.122L176.536 40.2903H176.506L175.935 42.8966H174.767L173.93 39.066H174.805L175.383 42.0028H175.413L176.044 39.066H177.073L177.711 42.0028H177.745L178.335 39.066H179.105L178.267 42.8966ZM182.86 42.8966H181.989V40.0274L181.688 39.727H181.283L180.592 40.2978V42.8966H179.721V39.066H180.359L180.558 39.5955H180.592L181.196 39.0284H182.207L182.86 39.6819V42.8966ZM183.859 37.5751H184.73V42.8966H183.859V37.5751ZM188.276 39.0284L188.929 39.6819V42.2807L188.276 42.9342H186.345L185.692 42.2807V39.6819L186.345 39.0284H188.276ZM186.86 39.727L186.559 40.0274V41.9352L186.86 42.2356H187.761L188.061 41.9352V40.0274L187.761 39.727H186.86ZM192.238 39.0284L192.891 39.6819V42.8966H192.253L192.054 42.3671H192.02L191.415 42.9342H190.39L189.736 42.2807V41.2292L190.39 40.5757H192.02V39.9898L191.723 39.6894H190.837L190.412 40.0875L189.83 39.5655L190.367 39.0284H192.238ZM190.904 41.2367L190.608 41.5371V41.9652L190.916 42.2732H191.329L192.02 41.6723V41.2367H190.904ZM194.502 42.9342L193.849 42.2807V39.6819L194.502 39.0284H195.546L196.155 39.5955V37.5751H197.026V42.8966H196.387L196.185 42.3671H196.155L195.546 42.9342H194.502ZM195.017 39.727L194.716 40.0274V41.9352L195.017 42.2356H195.464L196.155 41.6648V40.2978L195.464 39.727H195.017ZM200.594 39.066H202.516V42.8966H201.649V39.7645H200.594V42.8966H199.726V39.7645H199.257V39.066H199.726V38.236L200.387 37.5751H201.649V37.9882L202.062 37.5751H202.516V38.3449H200.902L200.594 38.6529V39.066ZM203.515 37.5751H204.387V42.8966H203.515V37.5751ZM208.525 42.3596L207.947 42.9342H206.002L205.348 42.2807V39.6819L206.002 39.0284H207.778L208.431 39.6819V41.3118H206.216V41.9652L206.524 42.2732H207.507L207.962 41.8413L208.525 42.3596ZM206.524 39.6894L206.216 39.9974V40.6809H207.564V39.9974L207.256 39.6894H206.524ZM212.427 42.2732L211.766 42.9342H209.75L209.182 42.3671L209.75 41.8338L210.189 42.2732H211.252L211.56 41.9652V41.5972L211.252 41.2893H209.941L209.28 40.6283V39.6894L209.941 39.0284H211.759L212.311 39.5805L211.751 40.08L211.327 39.6894H210.459L210.151 39.9974V40.2753L210.459 40.5832H211.766L212.427 41.2442V42.2732ZM213.836 42.8966H212.927V42.0516H213.836V42.8966ZM215.465 42.8966H214.56V42.0516H215.465V42.8966ZM217.088 42.8966H216.183V42.0516H217.088V42.8966Z" fill="#529EB9"/>
<path d="M177.273 49.1819H178.554V51.7356H177.976V49.6475H177.273V51.7356H176.694V49.6475H176.381V49.1819H176.694V48.6285L177.135 48.1879H177.976V48.4633L178.251 48.1879H178.554V48.7011H177.478L177.273 48.9064V49.1819ZM179.22 48.1879H179.801V51.7356H179.22V48.1879ZM182.56 51.3776L182.175 51.7606H180.878L180.442 51.325V49.5925L180.878 49.1568H182.062L182.498 49.5925V50.679H181.021V51.1147L181.226 51.32H181.882L182.185 51.0321L182.56 51.3776ZM181.226 49.5975L181.021 49.8028V50.2584H181.919V49.8028L181.714 49.5975H181.226ZM185.162 51.32L184.721 51.7606H183.376L182.998 51.3826L183.376 51.0271L183.669 51.32H184.378L184.583 51.1147V50.8693L184.378 50.664H183.504L183.064 50.2234V49.5975L183.504 49.1568H184.716L185.084 49.5249L184.711 49.8578L184.428 49.5975H183.85L183.644 49.8028V49.988L183.85 50.1933H184.721L185.162 50.634V51.32ZM187.137 51.7606L186.701 51.325V49.5925L187.137 49.1568H187.833L188.239 49.5349V48.1879H188.819V51.7356H188.394L188.259 51.3826H188.239L187.833 51.7606H187.137ZM187.48 49.6225L187.28 49.8228V51.0947L187.48 51.2949H187.778L188.239 50.9144V50.0031L187.778 49.6225H187.48ZM191.183 49.1568L191.619 49.5925V51.325L191.183 51.7606H189.896L189.46 51.325V49.5925L189.896 49.1568H191.183ZM190.239 49.6225L190.039 49.8228V51.0947L190.239 51.2949H190.84L191.04 51.0947V49.8228L190.84 49.6225H190.239ZM194.896 51.7356H194.132L193.742 49.998H193.722L193.341 51.7356H192.562L192.004 49.1819H192.587L192.973 51.1397H192.993L193.414 49.1819H194.1L194.525 51.1397H194.548L194.941 49.1819H195.454L194.896 51.7356ZM197.958 51.7356H197.377V49.8228L197.177 49.6225H196.906L196.446 50.0031V51.7356H195.865V49.1819H196.29L196.423 49.5349H196.446L196.849 49.1568H197.522L197.958 49.5925V51.7356ZM198.624 48.1879H199.205V51.7356H198.624V48.1879ZM201.568 49.1568L202.004 49.5925V51.325L201.568 51.7606H200.281L199.846 51.325V49.5925L200.281 49.1568H201.568ZM200.624 49.6225L200.424 49.8228V51.0947L200.624 51.2949H201.225L201.425 51.0947V49.8228L201.225 49.6225H200.624ZM204.21 49.1568L204.645 49.5925V51.7356H204.22L204.087 51.3826H204.064L203.661 51.7606H202.978L202.542 51.325V50.624L202.978 50.1883H204.064V49.7978L203.867 49.5975H203.276L202.993 49.8629L202.605 49.5148L202.963 49.1568H204.21ZM203.321 50.629L203.123 50.8293V51.1147L203.328 51.32H203.604L204.064 50.9194V50.629H203.321ZM205.719 51.7606L205.284 51.325V49.5925L205.719 49.1568H206.415L206.821 49.5349V48.1879H207.402V51.7356H206.976L206.841 51.3826H206.821L206.415 51.7606H205.719ZM206.062 49.6225L205.862 49.8228V51.0947L206.062 51.2949H206.36L206.821 50.9144V50.0031L206.36 49.6225H206.062ZM211.13 51.32L210.689 51.7606H209.345L208.966 51.3826L209.345 51.0271L209.637 51.32H210.346L210.551 51.1147V50.8693L210.346 50.664H209.472L209.032 50.2234V49.5975L209.472 49.1568H210.684L211.052 49.5249L210.679 49.8578L210.396 49.5975H209.818L209.612 49.8028V49.988L209.818 50.1933H210.689L211.13 50.634V51.32ZM211.643 49.1819H212.224V51.0947L212.422 51.2949H212.694L213.155 50.9144V49.1819H213.736V51.7356H213.31L213.175 51.3826H213.155L212.75 51.7606H212.079L211.643 51.325V49.1819ZM216.485 51.3776L216.099 51.7606H214.813L214.377 51.325V49.5925L214.813 49.1568H216.059L216.427 49.5249L216.012 49.9004L215.726 49.6225H215.156L214.955 49.8228V51.0947L215.156 51.2949H215.766L216.074 50.992L216.485 51.3776ZM218.979 51.3776L218.593 51.7606H217.306L216.871 51.325V49.5925L217.306 49.1568H218.553L218.921 49.5249L218.505 49.9004L218.22 49.6225H217.649L217.449 49.8228V51.0947L217.649 51.2949H218.26L218.568 50.992L218.979 51.3776ZM221.482 51.3776L221.097 51.7606H219.8L219.364 51.325V49.5925L219.8 49.1568H220.984L221.42 49.5925V50.679H219.943V51.1147L220.148 51.32H220.804L221.107 51.0321L221.482 51.3776ZM220.148 49.5975L219.943 49.8028V50.2584H220.841V49.8028L220.636 49.5975H220.148ZM224.084 51.32L223.643 51.7606H222.299L221.92 51.3826L222.299 51.0271L222.591 51.32H223.3L223.505 51.1147V50.8693L223.3 50.664H222.426L221.986 50.2234V49.5975L222.426 49.1568H223.638L224.006 49.5249L223.633 49.8578L223.35 49.5975H222.772L222.566 49.8028V49.988L222.772 50.1933H223.643L224.084 50.634V51.32ZM226.607 51.32L226.167 51.7606H224.822L224.444 51.3826L224.822 51.0271L225.115 51.32H225.824L226.029 51.1147V50.8693L225.824 50.664H224.95L224.509 50.2234V49.5975L224.95 49.1568H226.162L226.53 49.5249L226.157 49.8578L225.874 49.5975H225.295L225.09 49.8028V49.988L225.295 50.1933H226.167L226.607 50.634V51.32ZM227.203 49.6475H226.89V49.1819H227.203V48.6285L227.644 48.1879H228.5V48.7011H227.987L227.782 48.9064V49.1819H228.315V49.6475H227.782V51.7356H227.203V49.6475ZM228.808 49.1819H229.389V51.0947L229.587 51.2949H229.86L230.32 50.9144V49.1819H230.901V51.7356H230.476L230.34 51.3826H230.32L229.915 51.7606H229.244L228.808 51.325V49.1819ZM231.567 48.1879H232.148V51.7356H231.567V48.1879ZM232.814 48.1879H233.395V51.7356H232.814V48.1879Z" fill="white"/>
<path d="M168.15 53.6256H165.743V52.8257H168.15V53.6256Z" fill="#529EB9"/>
<path d="M30.6812 42.9015H23.4331V50.2874H21.0171V32.5989H31.5074V34.8022H23.4331V40.6983H30.6812V42.9015ZM36.64 34.8022H33.8108V32.5989H41.8977V34.8022H39.0435V48.0841H41.8977V50.2874H33.8108V48.0841H36.64V34.8022ZM47.7688 48.0841H55.9182V50.2874H45.3527V32.5989H47.7688V48.0841ZM67.4852 32.5989V34.8022H62.3902V50.2874H59.9742V34.8022H54.8667V32.5989H67.4852ZM82.3695 50.2874H79.6029L75.6346 43.3897H72.3298V50.2874H69.9137V32.5989H78.3511L81.1677 35.4156V40.4229L78.3261 43.2646L82.3695 50.2874ZM78.7642 36.417L77.1493 34.8022H72.3298V41.1865H77.1493L78.7642 39.5716V36.417ZM95.1257 42.3632H87.7273V48.0841H95.9519V50.2874H85.3113V32.5989H95.9519V34.8022H87.7273V40.16H95.1257V42.3632ZM102.887 34.8022L101.272 36.417V38.6703L102.887 40.2852H108.37L111.199 43.1143V47.4707L108.37 50.2874H101.122L98.5056 47.7211L100.196 46.0311L102.324 48.0841H107.168L108.783 46.4693V44.1033L107.168 42.4884H101.685L98.8687 39.6718V35.4156L101.685 32.5989H108.27L110.661 34.9524L108.971 36.6424L107.068 34.8022H102.887ZM120.663 39.9597H118.247V37.5937H120.663V39.9597ZM120.663 50.2874H118.247V47.9339H120.663V50.2874ZM121.439 31.0592H123.642L131.642 55.2822H129.438L121.439 31.0592ZM127.298 31.0592H129.501L137.5 55.2822H135.297L127.298 31.0592Z" fill="white"/>
<rect width="401" height="13.5287" fill="#3B8CA1"/>
</svg>
